<svg xmlns="http://www.w3.org/2000/svg" viewBox="0 0 252.8 169.5"><path fill="#707070" d="M29.8 19.8c0 1.1-.9 2-2 2h-1.9c-1.1 0-2-.9-2-2v-1.9c0-1.1.9-2 2-2h1.9c1.1 0 2 .9 2 2v1.9z"/><path fill="#707070" d="M23.9 17.8h5.9v14.6h-5.9z"/><path d="M18.1 32.4V17.2 12h17.6v20.4h5.9V10.6c0-2.5-2-4.5-4.5-4.5H17c-2.5 0-4.5 2-4.5 4.5v21.8h5.6zM.5 8.8h5.8v23.6H.5z"/><path fill="#4692C9" d="M70.7 6.1v20.5H53.1V25v-7.5V6h-5.9v21.8c0 2.5 2 4.5 4.5 4.5H71.9c2.5 0 4.5-2 4.5-4.5V6h-5.7zM12.2 4.1c0 1-.8 1.7-1.7 1.7H8.1c-1 0-1.7-.8-1.7-1.7V1.7C6.4.7 7.2 0 8.1 0h2.4c1 0 1.7.8 1.7 1.7v2.4z"/><path d="M6.4 10c0 1-.8 1.7-1.7 1.7H2.2c-1 0-1.7-.8-1.7-1.7V7.6c0-1 .8-1.7 1.7-1.7h2.4c1 0 1.7.8 1.7 1.7V10z"/><g><path d="M102.3 22.7v6.8c0 .5 0 .9.1 1.2H100c.1-.4.1-.8.1-1.2v-6.8h-7.5c-.6 0-1.3 0-1.9.1v-2c.7.1 1.3.1 1.9.1h17.1c.6 0 1.3 0 1.9-.1v2c-.7-.1-1.3-.1-1.9-.1h-7.4zm4.4-11.8h-4.3c.1.9.4 1.7 1 2.4s1.3 1.3 2.1 1.8 1.6.9 2.5 1.2c.9.3 1.8.6 2.7.7-.3.3-.5.6-.8.8-.2.3-.5.5-.7.8-.7-.2-1.3-.4-2.1-.6-.7-.3-1.4-.6-2.2-1-.8-.4-1.5-.9-2.2-1.5-.7-.6-1.2-1.3-1.6-2.1-.4.7-.8 1.2-1.4 1.8-.5.5-1.1 1-1.8 1.4-.7.5-1.5.9-2.4 1.2s-1.7.6-2.5.8c-.2-.2-.4-.5-.7-.8l-.8-.8c1.1-.2 2.2-.5 3.2-.9s1.9-.8 2.6-1.4c.7-.5 1.3-1.1 1.8-1.7.5-.7.7-1.4.8-2.2h-5.5c-.3 0-.8 0-1.2.1V9c.4.1.8.1 1.2.1H107.8c.4 0 .8 0 1.2-.1v2c-.5-.1-.9-.1-1.2-.1h-1.1zM121.3 11.2v.3c0 .9.1 1.7.4 2.4.3.7.7 1.4 1.2 2 .6.7 1.2 1.3 2 1.8s1.6.9 2.4 1.1l-.8.8c-.3.3-.5.6-.6.8-.5-.2-1.1-.5-1.6-.8-.6-.3-1.1-.7-1.6-1.1-.5-.4-1-.8-1.4-1.3s-.8-1-1.1-1.6c-.2.6-.5 1.1-.8 1.6-.3.5-.7 1-1.1 1.4-.5.5-1.1 1-1.7 1.4-.6.4-1.2.8-1.9 1.1-.2-.2-.5-.4-.8-.7-.3-.3-.6-.5-.9-.7.9-.4 1.8-.9 2.6-1.4.8-.6 1.5-1.2 2.1-1.9.5-.7.9-1.4 1.2-2.2.3-.8.4-1.7.4-2.6v-.4-1.1c0-.3-.1-.7-.1-1.1h2.5c-.1.5-.1.8-.1 1.2-.3.1-.3.5-.3 1zm10.9 17.3v1.2c0 .4.1.8.1 1.2H130c.1-.4.1-.7.1-1.2v-5.1H118.4c-.4 0-.9 0-1.4.1v-2c.5.1 1 .1 1.4.1h13.9c-.1.3-.1.6-.1.9v4.8zm.1-17.7v10.9h-2.1V10.8 9.5c0-.5-.1-.8-.1-1.3h2.3c-.1.4-.1.9-.1 1.3v1.3zM142.9 24.7v-2.4c-1.3-.1-2.3-.5-3.1-1.2-.8-.7-1.2-1.4-1.2-2.4 0-.5.1-1 .4-1.4s.6-.8 1.1-1.1c.5-.3 1-.6 1.7-.8.7-.2 1.4-.3 2.2-.3.8 0 1.5.1 2.2.3.7.2 1.2.5 1.7.8.5.3.8.7 1.1 1.2.3.4.4.9.4 1.4 0 .9-.4 1.6-1.2 2.3-.8.6-1.8 1-3.1 1.2v2.4c1.1-.1 2.3-.1 3.6-.2 1.3-.1 2.5-.2 3.5-.3V26c-2.2.3-4.4.4-6.5.5-2.1.1-4.3.1-6.7.1h-1.3c-.4 0-.8 0-1.3.1v-2c.5.1.9.1 1.3.1h1.3l3.9-.1zm5.4-10.6h-9.7c-.3 0-.6 0-1 .1v-1.9c.4.1.7.1 1 .1h10.7c.3 0 .6 0 1-.1v1.9c-.4 0-.7-.1-1-.1h-1zm-2.7-3.7H140.6V8.6c.3 0 .6.1.8.1h5c.2 0 .6 0 .9-.1v1.8H145.6zM144 20.8c1 0 1.8-.2 2.4-.6.6-.4.9-.9.9-1.5s-.3-1.1-.9-1.5c-.6-.4-1.4-.6-2.4-.6-.9 0-1.7.2-2.4.6-.6.4-1 .9-1 1.5s.3 1.1 1 1.5c.6.4 1.4.6 2.4.6zm11.2 6.6v1.7c0 .6 0 1.1.1 1.7H153c.1-.6.1-1.1.1-1.7V11.7 10c0-.6-.1-1.1-.1-1.7h2.3c-.1.6-.1 1.1-.1 1.7v17.4zM165.9 11.8v1.9c0 1.2.1 2.2.4 3.2.2 1 .6 1.9 1.1 2.7.6.9 1.2 1.8 2 2.6s1.7 1.4 2.8 2.1c-.3.2-.6.5-.9.8l-.7.7c-.6-.4-1.1-.8-1.7-1.3-.5-.5-1.1-1-1.5-1.5-.6-.6-1.1-1.3-1.5-2-.4-.7-.8-1.4-1.1-2.2-.2.7-.5 1.4-.9 2.1-.4.7-.9 1.4-1.4 2.1-.6.7-1.1 1.3-1.7 1.9-.6.6-1.2 1.1-1.8 1.4-.2-.2-.5-.4-.9-.7-.4-.3-.7-.5-1-.7 1.1-.7 2-1.4 2.8-2.2.8-.8 1.5-1.7 2.1-2.7.5-1 .9-2 1.2-3.1.3-1.1.4-2.3.4-3.5v-1.5-1.3c0-.4-.1-.8-.1-1.3h2.4c-.1.5-.1.9-.1 1.3.1.4.1.8.1 1.2zm10.2 5.2h2.4c.3 0 .7 0 1-.1V19c-.3 0-.6-.1-1-.1h-2.3v10.2c0 .6 0 1.1.1 1.7h-2.4c.1-.6.1-1.1.1-1.7V11.7 10c0-.6-.1-1.1-.1-1.7h2.4c-.1.6-.1 1.1-.1 1.7v7zM187.6 17.5c0-1.5.2-2.8.5-3.8s.8-2 1.3-2.7c.5-.7 1.1-1.2 1.8-1.5.7-.3 1.4-.5 2-.5.7 0 1.4.2 2.1.5.7.3 1.3.8 1.8 1.5s.9 1.6 1.2 2.7c.3 1.1.5 2.3.5 3.8s-.2 2.7-.5 3.8c-.3 1.1-.7 2-1.2 2.7-.5.7-1.1 1.2-1.8 1.6-.7.3-1.4.5-2.1.5-.7 0-1.4-.2-2.1-.5-.7-.3-1.3-.9-1.8-1.6-.5-.7-1-1.6-1.3-2.6-.2-1.2-.4-2.5-.4-3.9zm2.2-.1c0 .9.1 1.7.2 2.5.2.8.4 1.5.7 2.1.3.6.7 1.1 1.1 1.5.4.4.9.5 1.5.5s1-.2 1.5-.5c.4-.4.8-.9 1.1-1.5.3-.6.5-1.3.7-2.1.2-.8.2-1.7.2-2.5 0-.9-.1-1.7-.2-2.5-.2-.8-.4-1.5-.7-2.1-.3-.6-.6-1.1-1.1-1.5-.4-.4-.9-.6-1.5-.6s-1.1.2-1.5.6-.8.9-1.1 1.5c-.3.6-.5 1.3-.7 2.1s-.2 1.7-.2 2.5zm15.1-1.2h2.5c.3 0 .7 0 1-.1v2.1c-.3 0-.6-.1-1-.1H205v11c0 .6 0 1.1.1 1.7h-2.3c.1-.6.1-1.1.1-1.7V11.7 10c0-.6-.1-1.1-.1-1.7h2.3c-.1.6-.1 1.1-.1 1.7v6.2zM210.2 14.2c0-.8.1-1.5.4-2.2s.7-1.3 1.2-1.8 1.1-.9 1.9-1.2c.7-.3 1.5-.5 2.4-.5.9 0 1.6.2 2.4.5.7.3 1.3.7 1.9 1.2.5.5.9 1.1 1.2 1.8.3.7.4 1.4.4 2.2 0 .8-.1 1.5-.4 2.2-.3.7-.7 1.3-1.2 1.8s-1.2.9-1.9 1.2c-.7.3-1.5.4-2.4.4-.9 0-1.7-.1-2.4-.4s-1.3-.7-1.9-1.2c-.5-.5-.9-1.1-1.2-1.8-.3-.7-.4-1.4-.4-2.2zm5.9 3.8c1.2 0 2.1-.4 2.8-1.1.6-.8 1-1.7 1-2.7s-.3-2-1-2.7c-.6-.7-1.6-1.1-2.8-1.1s-2.1.4-2.8 1.1c-.7.7-1 1.7-1 2.7s.3 2 1 2.7 1.6 1.1 2.8 1.1zm12.2 12.5h-14.9v-6.1-1.1c0-.4-.1-.7-.1-1.1h15.1c-.1.4-.1.7-.1 1.1V30.5zm-2-1.8v-4.8h-10.7v4.8h10.7zm2.1-17.9V21h-2.1V10.8 9.5c0-.4-.1-.8-.1-1.3h2.3c-.1.4-.1.9-.1 1.3v1.3zM247.1 22.9V29.5c0 .4 0 .9.1 1.3h-2.3v-.6-.7-.6V23h-5.6v6.4c0 .4 0 .9.1 1.3h-2.3v-.6-.7-.6V23.1h-3.7c-.6 0-1.3 0-1.9.1v-2c.7.1 1.3.1 1.9.1h17.1c.6 0 1.3 0 1.9-.1v2c-.7 0-1.3-.1-1.9-.1h-3.4zm-5-4.1c-1.3 0-2.4-.1-3.4-.4-1-.3-1.9-.6-2.6-1.1-.7-.5-1.2-1-1.6-1.6-.4-.6-.6-1.3-.6-2.1 0-.7.2-1.4.6-2 .4-.6.9-1.2 1.6-1.7.7-.5 1.5-.8 2.5-1.1 1-.3 2.2-.4 3.4-.4 1.3 0 2.4.1 3.4.4 1 .3 1.9.6 2.6 1.1.7.5 1.2 1 1.6 1.6.4.6.6 1.3.6 2s-.2 1.4-.6 2c-.4.6-.9 1.2-1.6 1.6-.7.5-1.6.8-2.6 1.1-.9.5-2 .6-3.3.6zm-5.9-5.1c0 .5.1 1 .4 1.4.3.4.7.8 1.2 1 .5.3 1.1.5 1.9.7.7.2 1.5.2 2.4.2.8 0 1.6-.1 2.3-.2.7-.1 1.3-.4 1.9-.6.5-.3.9-.6 1.2-1s.5-.9.5-1.4c0-.5-.2-1-.5-1.4s-.7-.8-1.2-1.1c-.5-.3-1.1-.5-1.9-.7-.7-.2-1.5-.2-2.3-.2-.9 0-1.6.1-2.4.2-.7.2-1.4.4-1.9.7-.5.3-.9.6-1.2 1-.2.4-.4.9-.4 1.4z"/></g><g><path d="M5.6 165.6V169.5H4.5v-.6V165.6H.1v-.9H10v.9H5.6zm2.1-5.6H5.6c0 .4.2.8.5 1.2.3.3.6.6 1 .9l1.2.6c.4.2.9.3 1.3.3l-.4.4c-.1.1-.2.2-.3.4-.3-.1-.6-.2-1-.3s-.7-.3-1-.5c-.4-.2-.7-.4-1-.7-.3-.3-.6-.6-.8-1-.2.3-.4.6-.6.8-.3.2-.5.5-.8.7-.4.2-.7.4-1.1.6s-.8.3-1.2.4l-.4-.4-.4-.4c.5-.1 1-.3 1.5-.4s.9-.4 1.2-.7c.4-.2.6-.5.9-.8.2-.3.4-.7.4-1H1.2v-.9h7.6v.9h-.6c-.1-.1-.3-.1-.5-.1zM14.6 160.2v.2c0 .4.1.8.2 1.1.1.3.3.7.6.9.3.3.6.6.9.8.4.2.7.4 1.1.5l-.4.4c-.1.1-.2.3-.3.4-.2-.1-.5-.2-.8-.4s-.5-.3-.8-.5c-.2-.2-.5-.4-.7-.6-.2-.2-.4-.5-.5-.7-.1.3-.2.5-.4.8-.2.2-.3.5-.5.7-.3.3-.5.5-.8.7-.3.2-.6.4-.9.5-.1-.1-.2-.2-.4-.3-.2-.1-.3-.2-.4-.3.4-.2.8-.4 1.2-.7s.7-.6 1-.9c.2-.3.4-.7.6-1s.2-.8.2-1.2v-.2-.5-.5h1.2c0 .2 0 .4-.1.5v.3zm5.2 8.2v1.1h-1.1v-.5-2.5H12.4v-.9H19.7v2.8zm0-8.4v5.2h-1V160v-.6-.6h1.1v.6c0 .2-.1.4-.1.6zM24.9 166.6v-1.1c-.6-.1-1.1-.3-1.5-.6s-.6-.7-.6-1.1c0-.2.1-.5.2-.7.1-.2.3-.4.5-.5.2-.2.5-.3.8-.4.3-.1.7-.1 1-.1.4 0 .7 0 1 .1.3.1.6.2.8.4.2.2.4.3.5.5s.2.4.2.7c0 .4-.2.8-.6 1.1-.4.3-.9.5-1.5.6v1.1c.5 0 1.1-.1 1.7-.1s1.2-.1 1.7-.1v.8c-1.1.1-2.1.2-3.1.2h-4.4v-.9h1.2l2.1.1zm2.5-5.1h-5.1v-.9h6.1v.9h-1zm-1.3-1.7H23.7v-.8h3.2v.9h-.4c-.1-.1-.3-.1-.4-.1zm-.8 4.9c.5 0 .8-.1 1.1-.3.3-.2.4-.4.4-.7 0-.3-.1-.5-.4-.7-.3-.2-.7-.3-1.1-.3-.4 0-.8.1-1.1.3-.3.2-.5.4-.5.7 0 .3.2.5.5.7.3.2.7.3 1.1.3zm5.4 3.1v1.6h-1.1v-.8V160.4v-.8-.8h1.1v9zM35.7 160.5v.9c0 .5.1 1.1.2 1.5.1.5.3.9.5 1.3.3.4.6.8 1 1.2.4.4.8.7 1.3 1-.1.1-.3.2-.4.4-.1.1-.3.3-.4.3-.3-.2-.5-.4-.8-.6-.3-.2-.5-.5-.7-.7-.3-.3-.5-.6-.7-.9-.2-.3-.4-.7-.5-1-.1.3-.2.6-.4 1-.2.3-.4.7-.6 1-.3.3-.5.6-.8.9s-.6.5-.8.7c-.1-.1-.2-.2-.4-.3-.2-.1-.3-.2-.5-.3.5-.3.9-.7 1.3-1.1.4-.4.7-.8 1-1.3.3-.5.4-.9.6-1.5s.2-1.1.2-1.7v-.7-.6-.6H36v.6c-.3.1-.3.3-.3.5zm4.9 2.4h1.7v1h-1.6v5.6h-1.1v-.8V160.5v-.8-.8h1.1v4zM46 163.1c0-.7.1-1.3.2-1.8.2-.5.4-.9.6-1.3.2-.3.5-.6.8-.7s.6-.2 1-.2c.3 0 .7.1 1 .2s.6.4.9.7c.2.3.4.8.6 1.3.2.5.2 1.1.2 1.8s-.1 1.3-.2 1.8c-.2.5-.3.9-.6 1.3-.2.3-.5.6-.9.7s-.7.2-1 .2c-.3 0-.7-.1-1-.2s-.6-.4-.8-.7c-.3-.3-.5-.7-.6-1.3-.1-.5-.2-1.1-.2-1.8zm1 0c0 .4 0 .8.1 1.2.1.4.2.7.3 1 .1.3.3.5.5.7.2.2.4.3.7.3.3 0 .5-.1.7-.3.2-.2.4-.4.5-.7.1-.3.3-.6.3-1s.1-.8.1-1.2c0-.4 0-.8-.1-1.2s-.2-.7-.3-1c-.1-.3-.3-.5-.5-.7-.2-.2-.4-.3-.7-.3-.3 0-.5.1-.7.3-.2.2-.4.4-.5.7-.1.3-.3.6-.3 1s-.1.8-.1 1.2zm7.2-.6h1.7v1h-1.6v6h-1.1v-.8V160.5v-.8-.8h1.1v3.6zM56.7 161.6c0-.4.1-.7.2-1s.3-.6.6-.9c.2-.2.5-.4.9-.6.3-.1.7-.2 1.1-.2.4 0 .8.1 1.1.2.3.1.6.3.9.6.2.2.4.5.6.9s.2.7.2 1c0 .4-.1.7-.2 1s-.3.6-.6.9l-.9.6c-.3.1-.7.2-1.1.2-.4 0-.8-.1-1.1-.2-.3-.1-.6-.3-.9-.6-.2-.2-.4-.5-.6-.9s-.2-.6-.2-1zm2.8 1.8c.6 0 1-.2 1.3-.5.3-.4.5-.8.5-1.3s-.2-.9-.5-1.3-.7-.5-1.3-.5c-.6 0-1 .2-1.3.5-.3.4-.5.8-.5 1.3s.2.9.5 1.3c.3.3.7.5 1.3.5zm5.8 5.9h-7v-2.9-.5c0-.2 0-.3-.1-.5h7.2v3.9zm-1-.8v-2.3h-5.1v2.3h5.1zm1-8.5v4.8h-1V160v-.6-.6h1.1v.6c-.1.2-.1.4-.1.6zM74.2 165.7V169.5h-1.1v-.3-.3-.3-2.8h-2.6v3.7h-1.1v-.3-.3-.3V165.9h-2.6v-1H76.8v1h-2.6zm-2.4-1.9c-.6 0-1.1-.1-1.6-.2s-.9-.3-1.2-.5-.6-.5-.8-.8-.3-.6-.3-1c0-.3.1-.7.3-1 .2-.3.4-.6.8-.8.3-.2.7-.4 1.2-.5s1-.2 1.6-.2c.6 0 1.1.1 1.6.2s.9.3 1.2.5c.3.2.6.5.8.8.2.3.3.6.3 1 0 .3-.1.7-.3 1-.2.3-.4.6-.8.8-.3.2-.7.4-1.2.5s-.9.2-1.6.2zm-2.8-2.5c0 .2.1.5.2.7.1.2.3.4.6.5.2.1.5.2.9.3s.7.1 1.1.1c.4 0 .8 0 1.1-.1l.9-.3c.2-.1.4-.3.6-.5.1-.2.2-.4.2-.6 0-.2-.1-.5-.2-.7-.1-.2-.3-.4-.6-.5-.2-.1-.5-.2-.9-.3-.3-.1-.7-.1-1.1-.1-.4 0-.8 0-1.1.1l-.9.3c-.2.1-.4.3-.6.5-.1.2-.2.4-.2.6z"/></g><g><path fill="#707070" d="M29.8 79c0 1.1-.9 2-2 2h-1.9c-1.1 0-2-.9-2-2v-1.9c0-1.1.9-2 2-2h1.9c1.1 0 2 .9 2 2V79z"/><path fill="#707070" d="M23.9 77h5.9v14.6h-5.9z"/><path d="M18.1 91.6V76.4v-5.2h17.6v20.4h5.9V69.8c0-2.5-2-4.5-4.5-4.5H17c-2.5 0-4.5 2-4.5 4.5v21.8h5.6zM.5 68h5.8v23.6H.5z"/><path fill="#4692C9" d="M70.7 65.3v20.5H53.1v-1.5-7.5-11.5h-5.9v21.8c0 2.5 2 4.5 4.5 4.5H71.9c2.5 0 4.5-2 4.5-4.5V65.3h-5.7zM12.2 63.3c0 1-.8 1.7-1.7 1.7H8.1c-1 0-1.7-.8-1.7-1.7v-2.4c0-1 .8-1.7 1.7-1.7h2.4c1 0 1.7.8 1.7 1.7v2.4z"/><path d="M6.4 69.2c0 1-.8 1.7-1.7 1.7H2.2c-1 0-1.7-.8-1.7-1.7v-2.4c0-1 .8-1.7 1.7-1.7h2.4c1 0 1.7.8 1.7 1.7v2.4z"/></g><g><path fill="#707070" d="M29.8 139.3c0 1.1-.9 2-2 2h-1.9c-1.1 0-2-.9-2-2v-1.9c0-1.1.9-2 2-2h1.9c1.1 0 2 .9 2 2v1.9z"/><path fill="#707070" d="M23.9 137.3h5.9v14.6h-5.9z"/><path d="M18.1 151.8v-15.2-5.2h17.6v20.4h5.9V130c0-2.5-2-4.5-4.5-4.5H17c-2.5 0-4.5 2-4.5 4.5v21.8h5.6zM.5 128.2h5.8v23.6H.5z"/><path fill="#4692C9" d="M70.7 125.5V146H53.1v-1.5-7.5-11.5h-5.9v21.8c0 2.5 2 4.5 4.5 4.5H71.9c2.5 0 4.5-2 4.5-4.5v-21.8h-5.7zM12.2 123.6c0 1-.8 1.7-1.7 1.7H8.1c-1 0-1.7-.8-1.7-1.7v-2.4c0-1 .8-1.7 1.7-1.7h2.4c1 0 1.7.8 1.7 1.7v2.4z"/><path d="M6.4 129.4c0 1-.8 1.7-1.7 1.7H2.2c-1 0-1.7-.8-1.7-1.7V127c0-1 .8-1.7 1.7-1.7h2.4c1 0 1.7.8 1.7 1.7v2.4z"/></g><g><path d="M97.5 89.9l-.5.8c-1-.4-1.9-1-2.6-1.8S93 87.1 92.6 86c-.5-1.1-.8-2.3-1-3.6s-.3-2.8-.3-4.3c0-1.4.1-2.7.3-3.9.2-1.2.6-2.3 1-3.3.5-1 1-1.8 1.8-2.6.7-.8 1.6-1.4 2.6-2l.5.8c-.8.5-1.5 1.2-2.1 2-.5.8-1 1.6-1.3 2.6-.4 1-.6 2-.7 3-.1 1.1-.2 2.2-.2 3.3 0 1.3.1 2.6.2 3.8.1 1.2.4 2.3.7 3.3.3 1 .8 1.9 1.3 2.8.5.8 1.2 1.5 2.1 2zM110.3 81.9v6.8c0 .5 0 .9.1 1.2H108c.1-.4.1-.8.1-1.2v-6.8h-7.5c-.6 0-1.3 0-1.9.1v-2c.7.1 1.3.1 1.9.1h17.1c.6 0 1.3 0 1.9-.1v2c-.7-.1-1.3-.1-1.9-.1h-7.4zm4.4-11.8h-4.3c.1.9.4 1.7 1 2.4s1.3 1.3 2.1 1.8 1.6.9 2.5 1.2c.9.3 1.8.6 2.7.7-.3.3-.5.6-.8.8-.2.3-.5.5-.7.8-.7-.2-1.3-.4-2.1-.6-.7-.3-1.4-.6-2.2-1-.8-.4-1.5-.9-2.2-1.5-.7-.6-1.2-1.3-1.6-2.1-.4.7-.8 1.2-1.4 1.8-.5.5-1.1 1-1.8 1.4-.7.5-1.5.9-2.4 1.2s-1.7.6-2.5.8c-.2-.2-.4-.5-.7-.8l-.8-.8c1.1-.2 2.2-.5 3.2-.9s1.9-.8 2.6-1.4c.7-.5 1.3-1.1 1.8-1.7.5-.7.7-1.4.8-2.2h-5.5c-.3 0-.8 0-1.2.1v-2c.4.1.8.1 1.2.1H115.8c.4 0 .8 0 1.2-.1v2c-.5-.1-.9-.1-1.2-.1s-.7.1-1.1.1zM120.8 89.9c.9-.5 1.6-1.2 2.1-2s1-1.7 1.3-2.8c.3-1 .5-2.1.7-3.3.1-1.2.2-2.5.2-3.8 0-1.1-.1-2.2-.2-3.3-.1-1.1-.4-2.1-.7-3-.3-.9-.8-1.8-1.3-2.6-.6-.8-1.2-1.4-2-2l.5-.8c1 .6 1.8 1.2 2.5 2s1.3 1.6 1.8 2.6.8 2.1 1 3.3c.2 1.2.3 2.5.3 3.9 0 1.6-.1 3-.3 4.3s-.5 2.5-1 3.6-1 2-1.8 2.8c-.7.8-1.6 1.4-2.6 1.8l-.5-.7zM136.4 76.7c0-1.5.2-2.8.5-3.8s.8-2 1.3-2.7c.5-.7 1.1-1.2 1.8-1.5.7-.3 1.4-.5 2-.5.7 0 1.4.2 2.1.5.7.3 1.3.8 1.8 1.5s.9 1.6 1.2 2.7c.3 1.1.5 2.3.5 3.8s-.2 2.7-.5 3.8c-.3 1.1-.7 2-1.2 2.7-.5.7-1.1 1.2-1.8 1.6-.7.3-1.4.5-2.1.5-.7 0-1.4-.2-2.1-.5-.7-.3-1.3-.9-1.8-1.6-.5-.7-1-1.6-1.3-2.6-.3-1.2-.4-2.5-.4-3.9zm2.1-.1c0 .9.1 1.7.2 2.5.2.8.4 1.5.7 2.1.3.6.7 1.1 1.1 1.5.4.4.9.5 1.5.5s1-.2 1.5-.5c.4-.4.8-.9 1.1-1.5.3-.6.5-1.3.7-2.1.2-.8.2-1.7.2-2.5 0-.9-.1-1.7-.2-2.5-.2-.8-.4-1.5-.7-2.1-.3-.6-.6-1.1-1.1-1.5-.4-.4-.9-.6-1.5-.6s-1.1.2-1.5.6-.8.9-1.1 1.5c-.3.6-.5 1.3-.7 2.1s-.2 1.7-.2 2.5zm15.1-1.2h2.5c.3 0 .7 0 1-.1v2.1c-.3 0-.6-.1-1-.1h-2.4v11c0 .6 0 1.1.1 1.7h-2.3c.1-.6.1-1.1.1-1.7V70.9v-1.7c0-.6-.1-1.1-.1-1.7h2.3c-.1.6-.1 1.1-.1 1.7v6.2zM158.9 73.4c0-.8.1-1.5.4-2.2s.7-1.3 1.2-1.8 1.1-.9 1.9-1.2c.7-.3 1.5-.5 2.4-.5.9 0 1.6.2 2.4.5.7.3 1.3.7 1.9 1.2.5.5.9 1.1 1.2 1.8.3.7.4 1.4.4 2.2 0 .8-.1 1.5-.4 2.2-.3.7-.7 1.3-1.2 1.8s-1.2.9-1.9 1.2c-.7.3-1.5.4-2.4.4-.9 0-1.7-.1-2.4-.4s-1.3-.7-1.9-1.2c-.5-.5-.9-1.1-1.2-1.8s-.4-1.4-.4-2.2zm5.9 3.8c1.2 0 2.1-.4 2.8-1.1.6-.8 1-1.7 1-2.7s-.3-2-1-2.7c-.6-.7-1.6-1.1-2.8-1.1s-2.1.4-2.8 1.1c-.7.7-1 1.7-1 2.7s.3 2 1 2.7 1.6 1.1 2.8 1.1zm12.3 12.5h-14.9v-6.1-1.1c0-.4-.1-.7-.1-1.1h15.1c-.1.4-.1.7-.1 1.1V89.7zm-2.1-1.8v-4.8h-10.7v4.8H175zm2.1-17.9v10.2H175V70v-1.3c0-.4-.1-.8-.1-1.3h2.3c-.1.4-.1.9-.1 1.3V70zM195.9 82.1V88.7c0 .4 0 .9.1 1.3h-2.3v-.6-.7-.6V82.2h-5.6v6.4c0 .4 0 .9.1 1.3h-2.3v-.6-.7-.6V82.3h-3.7c-.6 0-1.3 0-1.9.1v-2c.7.1 1.3.1 1.9.1h17.1c.6 0 1.3 0 1.9-.1v2c-.7 0-1.3-.1-1.9-.1h-3.4zm-5-4.1c-1.3 0-2.4-.1-3.4-.4-1-.3-1.9-.6-2.6-1.1-.7-.5-1.2-1-1.6-1.6-.4-.6-.6-1.3-.6-2.1 0-.7.2-1.4.6-2 .4-.6.9-1.2 1.6-1.7.7-.5 1.5-.8 2.5-1.1 1-.3 2.2-.4 3.4-.4 1.3 0 2.4.1 3.4.4 1 .3 1.9.6 2.6 1.1.7.5 1.2 1 1.6 1.6.4.6.6 1.3.6 2s-.2 1.4-.6 2c-.4.6-.9 1.2-1.6 1.6-.7.5-1.6.8-2.6 1.1-.9.5-2.1.6-3.3.6zm-6-5.1c0 .5.1 1 .4 1.4.3.4.7.8 1.2 1 .5.3 1.1.5 1.9.7.7.2 1.5.2 2.4.2.8 0 1.6-.1 2.3-.2.7-.1 1.3-.4 1.9-.6.5-.3.9-.6 1.2-1s.5-.9.5-1.4c0-.5-.2-1-.5-1.4s-.7-.8-1.2-1.1c-.5-.3-1.1-.5-1.9-.7-.7-.2-1.5-.2-2.3-.2-.9 0-1.6.1-2.4.2-.7.2-1.4.4-1.9.7-.5.3-.9.6-1.2 1-.2.4-.4.9-.4 1.4z"/></g></svg>