<svg xmlns="http://www.w3.org/2000/svg" viewBox="0 0 167.2 150.6"><path fill="#707070" d="M29.3 78.4c0 1.1-.9 2-2 2h-1.9c-1.1 0-2-.9-2-2v-1.9c0-1.1.9-2 2-2h1.9c1.1 0 2 .9 2 2v1.9z"/><path fill="#707070" d="M23.4 76.4h5.8V91h-5.8z"/><path d="M17.6 91V75.8v-5.2h17.5V91H41V69.2c0-2.5-2-4.5-4.5-4.5H16.3c-2.5 0-4.5 2-4.5 4.5V91h5.8zM0 67.4h5.8V91H0z"/><path fill="#4692C9" d="M70.2 64.7v20.5H52.6v-1.5-7.5-11.5h-5.9v21.8c0 2.5 2 4.5 4.5 4.5h20.1c2.5 0 4.5-2 4.5-4.5V64.7h-5.6zM11.7 62.7c0 1-.8 1.7-1.7 1.7H7.6c-1 0-1.7-.8-1.7-1.7v-2.4c0-1 .8-1.7 1.7-1.7H10c1 0 1.7.8 1.7 1.7v2.4z"/><path d="M5.9 68.6c0 1-.8 1.7-1.7 1.7H1.7c-1 0-1.7-.8-1.7-1.7v-2.4c0-1 .8-1.7 1.7-1.7h2.4c1 0 1.7.8 1.7 1.7v2.4z"/><g><path fill="#707070" d="M29.3 138.1c0 1.1-.9 2-2 2h-1.9c-1.1 0-2-.9-2-2v-1.9c0-1.1.9-2 2-2h1.9c1.1 0 2 .9 2 2v1.9z"/><path fill="#707070" d="M23.4 136.1h5.8v14.6h-5.8z"/><path d="M17.6 150.6v-15.2-5.2h17.5v20.4H41v-21.8c0-2.5-2-4.5-4.5-4.5H16.3c-2.5 0-4.5 2-4.5 4.5v21.8h5.8zM0 127h5.8v23.6H0z"/><path fill="#4692C9" d="M70.2 124.3v20.5H52.6v-1.5-7.5-11.5h-5.9v21.8c0 2.5 2 4.5 4.5 4.5h20.1c2.5 0 4.5-2 4.5-4.5v-21.8h-5.6zM11.7 122.4c0 1-.8 1.7-1.7 1.7H7.6c-1 0-1.7-.8-1.7-1.7V120c0-1 .8-1.7 1.7-1.7H10c1 0 1.7.8 1.7 1.7v2.4z"/><path d="M5.9 128.2c0 1-.8 1.7-1.7 1.7H1.7c-1 0-1.7-.8-1.7-1.7v-2.4c0-1 .8-1.7 1.7-1.7h2.4c1 0 1.7.8 1.7 1.7v2.4z"/></g><g><path fill="#707070" d="M29.3 19.8c0 1.1-.9 2-2 2h-1.9c-1.1 0-2-.9-2-2v-1.9c0-1.1.9-2 2-2h1.9c1.1 0 2 .9 2 2v1.9z"/><path fill="#707070" d="M23.4 17.8h5.8v14.6h-5.8z"/><path d="M17.6 32.4V17.2 12h17.5v20.4H41V10.6c0-2.5-2-4.5-4.5-4.5H16.3c-2.5 0-4.5 2-4.5 4.5v21.8h5.8zM0 8.8h5.8v23.6H0z"/><path fill="#4692C9" d="M70.2 6.1v20.5H52.6V25v-7.5V6h-5.9v21.8c0 2.5 2 4.5 4.5 4.5h20.1c2.5 0 4.5-2 4.5-4.5V6h-5.6zM11.7 4.1c0 1-.8 1.7-1.7 1.7H7.6c-1 0-1.7-.8-1.7-1.7V1.7C5.9.7 6.7 0 7.6 0H10c1 0 1.7.8 1.7 1.7v2.4z"/><path d="M5.9 10c0 1-.8 1.7-1.7 1.7H1.7c-1 0-1.7-.8-1.7-1.7V7.6c0-1 .8-1.7 1.7-1.7h2.4c1 0 1.7.8 1.7 1.7V10z"/></g><g><path d="M91.3 31.9H89V20.5h2.3v11.4zM96.3 18.9c0 .7-.2 1.3-.6 1.8-.4.5-1.1.9-1.9 1l-.3-.5c.5-.2.8-.6.9-1-.4 0-.7-.1-.9-.4-.2-.3-.3-.6-.3-.9 0-.5.1-.8.4-1.1.3-.3.7-.5 1.2-.5.4 0 .8.1 1.1.4s.4.6.4 1.2zM114.1 31.9h-2.3v-9.1h-4.6v9.1h-2.3v-9.1h-4.6v9.1H98V20.5h13.7c1.5 0 2.3.8 2.3 2.3v9.1zM127.3 29.7c0 .7-.2 1.2-.6 1.6s-1 .6-1.6.6h-6.8c-.3 0-.6-.1-.9-.2-.3-.1-.5-.3-.7-.5-.2-.2-.4-.4-.5-.7-.1-.3-.2-.6-.2-.9v-9.2h2.3v9.2h6.8v-9.2h2.3v9.3zM137.1 31.9h-2.3V20.5h2.3v11.4zM150 31.9h-2.3v-9.1h-6.3v9.1h-2.3V20.5h8.5c1.5 0 2.3.8 2.3 2.3v9.1zM162.7 31.9H154c-1.5 0-2.3-.8-2.3-2.3v-6.9c0-.6.2-1.2.6-1.6.4-.4.9-.7 1.7-.7h8.8v2.3H154v6.9h8.8v2.3zM167.2 30.5c0 .2 0 .4-.1.6-.1.2-.2.4-.3.5s-.3.3-.5.3c-.2.1-.4.1-.6.1-.4 0-.8-.2-1.1-.5s-.6-.5-.6-1c0-.4.2-.8.5-1.1.3-.3.7-.4 1.1-.4.2 0 .4 0 .6.1.2.1.4.2.5.3s.3.3.3.5c.1.2.2.4.2.6z"/></g><g><path d="M85.7 91.6h-2.3V80.2h2.3v11.4zM98.5 91.6h-2.3v-9.1H90v9.1h-2.3V80.2h8.5c1.5 0 2.3.8 2.3 2.3v9.1zM111.3 91.6h-8.8c-1.5 0-2.3-.8-2.3-2.3v-6.9c0-.6.2-1.2.6-1.6.4-.4.9-.7 1.7-.7h8.8v2.3h-8.8v6.9h8.8v2.3zM115.7 90.2c0 .2 0 .4-.1.6-.1.2-.2.4-.3.5s-.3.3-.5.3c-.2.1-.4.1-.6.1-.4 0-.8-.2-1.1-.5s-.5-.7-.5-1.1c0-.4.2-.8.5-1.1.3-.3.7-.4 1.1-.4.2 0 .4 0 .6.1.2.1.4.2.5.3s.3.3.3.5c.1.3.1.5.1.7z"/></g></svg>