<svg xmlns="http://www.w3.org/2000/svg" viewBox="0 0 87.3 61.6"><path fill="#3A3B3D" d="M44.7 28.5S11.1 42.7 0 5.1c0 0 36.9-17.7 44.7 23.4z"/><path fill="#4BAA00" d="M44.7 28.5s4.5-36.2 42.6-27c0 0 3 35.1-42.6 27z"/><path fill="#3A3B3D" d="M5.7 61.6s7.5-16.9 25.8-15.2c0 0 7.5 1.1 16 7.2 0 0 9.1 5 19.8 3.4 0 0 8.5-1.9 13.4-9 0 0-1.2 11.3-13.6 12.9 0 0-10.1 1.5-19.6-5.2 0 0-10.8-5.9-19.5-5.1 0 0-10.5-1.2-22.3 11z"/><path fill="#3A3B3D" d="M16.9 60.8s3.7-6.1 12.2-6.8c0 0 10.5-.7 13.7 5.4.1.1-13.4-5.6-25.9 1.4zM44.7 53.5c-1.1 0-1.9-.9-1.9-2.1V30.5c0-1.2.9-2.1 1.9-2.1 1.1 0 1.9.9 1.9 2.1v20.9c0 1.2-.9 2.1-1.9 2.1z"/></svg>