<svg xmlns="http://www.w3.org/2000/svg" viewBox="0 0 252.3 32.4"><g fill="#CDCDCD"><path d="M29.3 19.8c0 1.1-.9 2-2 2h-1.9c-1.1 0-2-.9-2-2v-1.9c0-1.1.9-2 2-2h1.9c1.1 0 2 .9 2 2v1.9z"/><path d="M23.4 17.8h5.9v14.6h-5.9z"/><path d="M17.6 32.4V17.2 12h17.6v20.4H41V10.6c0-2.5-2-4.5-4.5-4.5H16.4c-2.5 0-4.5 2-4.5 4.5v21.8h5.7zM0 8.8h5.8v23.6H0zM70.2 6.1v20.5H52.6V25v-7.5V6h-5.9v21.8c0 2.5 2 4.5 4.5 4.5H71.4c2.5 0 4.5-2 4.5-4.5V6h-5.7zM11.7 4.1c0 1-.8 1.7-1.7 1.7H7.6c-1 0-1.7-.8-1.7-1.7V1.7C5.9.7 6.7 0 7.6 0H10c1 0 1.7.8 1.7 1.7v2.4z"/><path d="M5.9 10c0 1-.8 1.7-1.7 1.7H1.7c-1 0-1.7-.8-1.7-1.7V7.6c0-1 .8-1.7 1.7-1.7h2.4c1 0 1.7.8 1.7 1.7V10z"/></g><g fill="#CDCDCD"><path d="M101.8 22.7v6.8c0 .5 0 .9.1 1.2h-2.4c.1-.4.1-.8.1-1.2v-6.8h-7.5c-.6 0-1.3 0-1.9.1v-2c.7.1 1.3.1 1.9.1h17.1c.6 0 1.3 0 1.9-.1v2c-.7-.1-1.3-.1-1.9-.1h-7.4zm4.3-11.8h-4.3c.1.9.4 1.7 1 2.4s1.3 1.3 2.1 1.8 1.6.9 2.5 1.2c.9.3 1.8.6 2.7.7-.3.3-.5.6-.8.8-.2.3-.5.5-.7.8-.7-.2-1.3-.4-2.1-.6-.7-.3-1.4-.6-2.2-1-.8-.4-1.5-.9-2.2-1.5-.7-.6-1.2-1.3-1.6-2.1-.4.7-.8 1.2-1.4 1.8-.5.5-1.1 1-1.8 1.4-.7.5-1.5.9-2.4 1.2s-1.7.6-2.5.8c-.2-.2-.4-.5-.7-.8l-.8-.8c1.1-.2 2.2-.5 3.2-.9s1.9-.8 2.6-1.4c.7-.5 1.3-1.1 1.8-1.7.5-.7.7-1.4.8-2.2h-5.5c-.3 0-.8 0-1.2.1V9c.4.1.8.1 1.2.1H107.2c.4 0 .8 0 1.2-.1v2c-.5-.1-.9-.1-1.2-.1h-1.1zM120.8 11.2v.3c0 .9.1 1.7.4 2.4.3.7.7 1.4 1.2 2 .6.7 1.2 1.3 2 1.8s1.6.9 2.4 1.1l-.8.8c-.3.3-.5.6-.6.8-.5-.2-1.1-.5-1.6-.8-.6-.3-1.1-.7-1.6-1.1-.5-.4-1-.8-1.4-1.3s-.8-1-1.1-1.6c-.2.6-.5 1.1-.8 1.6-.3.5-.7 1-1.1 1.4-.5.5-1.1 1-1.7 1.4-.6.4-1.2.8-1.9 1.1-.2-.2-.5-.4-.8-.7-.3-.3-.6-.5-.9-.7.9-.4 1.8-.9 2.6-1.4.8-.6 1.5-1.2 2.1-1.9.5-.7.9-1.4 1.2-2.2.3-.8.4-1.7.4-2.6v-.4-1.1c0-.3-.1-.7-.1-1.1h2.5c-.1.5-.1.8-.1 1.2-.3.1-.3.5-.3 1zm10.9 17.3v1.2c0 .4.1.8.1 1.2h-2.4c.1-.4.1-.7.1-1.2v-5.1H117.8c-.4 0-.9 0-1.4.1v-2c.5.1 1 .1 1.4.1h13.9c-.1.3-.1.6-.1.9v4.8zm0-17.7v10.9h-2.1V10.8 9.5c0-.5-.1-.8-.1-1.3h2.3c-.1.4-.1.9-.1 1.3v1.3zM142.4 24.7v-2.4c-1.3-.1-2.3-.5-3.1-1.2-.8-.7-1.2-1.4-1.2-2.4 0-.5.1-1 .4-1.4s.6-.8 1.1-1.1c.5-.3 1-.6 1.7-.8.7-.2 1.4-.3 2.2-.3.8 0 1.5.1 2.2.3.7.2 1.2.5 1.7.8.5.3.8.7 1.1 1.2.3.4.4.9.4 1.4 0 .9-.4 1.6-1.2 2.3-.8.6-1.8 1-3.1 1.2v2.4c1.1-.1 2.3-.1 3.6-.2 1.3-.1 2.5-.2 3.5-.3V26c-2.2.3-4.4.4-6.5.5-2.1.1-4.3.1-6.7.1h-1.3c-.4 0-.8 0-1.3.1v-2c.5.1.9.1 1.3.1h1.3l3.9-.1zm5.3-10.6H138c-.3 0-.6 0-1 .1v-1.9c.4.1.7.1 1 .1h10.7c.3 0 .6 0 1-.1v1.9c-.4 0-.7-.1-1-.1h-1zm-2.6-3.7H140.1V8.6c.3 0 .6.1.8.1h5c.2 0 .6 0 .9-.1v1.8H145.1zm-1.6 10.4c1 0 1.8-.2 2.4-.6.6-.4.9-.9.9-1.5s-.3-1.1-.9-1.5c-.6-.4-1.4-.6-2.4-.6-.9 0-1.7.2-2.4.6-.6.4-1 .9-1 1.5s.3 1.1 1 1.5c.6.4 1.4.6 2.4.6zm11.2 6.6v1.7c0 .6 0 1.1.1 1.7h-2.3c.1-.6.1-1.1.1-1.7V11.7 10c0-.6-.1-1.1-.1-1.7h2.3c-.1.6-.1 1.1-.1 1.7v17.4zM165.4 11.8v1.9c0 1.2.1 2.2.4 3.2.2 1 .6 1.9 1.1 2.7.6.9 1.2 1.8 2 2.6s1.7 1.4 2.8 2.1c-.3.2-.6.5-.9.8l-.7.7c-.6-.4-1.1-.8-1.7-1.3-.5-.5-1.1-1-1.5-1.5-.6-.6-1.1-1.3-1.5-2-.4-.7-.8-1.4-1.1-2.2-.2.7-.5 1.4-.9 2.1-.4.7-.9 1.4-1.4 2.1-.6.7-1.1 1.3-1.7 1.9-.6.6-1.2 1.1-1.8 1.4-.2-.2-.5-.4-.9-.7-.4-.3-.7-.5-1-.7 1.1-.7 2-1.4 2.8-2.2.8-.8 1.5-1.7 2.1-2.7.5-1 .9-2 1.2-3.1.3-1.1.4-2.3.4-3.5v-1.5-1.3c0-.4-.1-.8-.1-1.3h2.4c-.1.5-.1.9-.1 1.3.1.4.1.8.1 1.2zm10.2 5.2h2.4c.3 0 .7 0 1-.1V19c-.3 0-.6-.1-1-.1h-2.3v10.2c0 .6 0 1.1.1 1.7h-2.4c.1-.6.1-1.1.1-1.7V11.7 10c0-.6-.1-1.1-.1-1.7h2.4c-.1.6-.1 1.1-.1 1.7v7zM187.1 17.5c0-1.5.2-2.8.5-3.8s.8-2 1.3-2.7c.5-.7 1.1-1.2 1.8-1.5.7-.3 1.4-.5 2-.5.7 0 1.4.2 2.1.5.7.3 1.3.8 1.8 1.5s.9 1.6 1.2 2.7c.3 1.1.5 2.3.5 3.8s-.2 2.7-.5 3.8c-.3 1.1-.7 2-1.2 2.7-.5.7-1.1 1.2-1.8 1.6-.7.3-1.4.5-2.1.5-.7 0-1.4-.2-2.1-.5-.7-.3-1.3-.9-1.8-1.6-.5-.7-1-1.6-1.3-2.6-.2-1.2-.4-2.5-.4-3.9zm2.2-.1c0 .9.1 1.7.2 2.5.2.8.4 1.5.7 2.1.3.6.7 1.1 1.1 1.5.4.4.9.5 1.5.5s1-.2 1.5-.5c.4-.4.8-.9 1.1-1.5.3-.6.5-1.3.7-2.1.2-.8.2-1.7.2-2.5 0-.9-.1-1.7-.2-2.5-.2-.8-.4-1.5-.7-2.1-.3-.6-.6-1.1-1.1-1.5-.4-.4-.9-.6-1.5-.6s-1.1.2-1.5.6-.8.9-1.1 1.5c-.3.6-.5 1.3-.7 2.1s-.2 1.7-.2 2.5zm15-1.2h2.5c.3 0 .7 0 1-.1v2.1c-.3 0-.6-.1-1-.1h-2.4v11c0 .6 0 1.1.1 1.7h-2.3c.1-.6.1-1.1.1-1.7V11.7 10c0-.6-.1-1.1-.1-1.7h2.3c-.1.6-.1 1.1-.1 1.7v6.2zM209.7 14.2c0-.8.1-1.5.4-2.2s.7-1.3 1.2-1.8 1.1-.9 1.9-1.2c.7-.3 1.5-.5 2.4-.5.9 0 1.6.2 2.4.5.7.3 1.3.7 1.9 1.2.5.5.9 1.1 1.2 1.8.3.7.4 1.4.4 2.2 0 .8-.1 1.5-.4 2.2-.3.7-.7 1.3-1.2 1.8s-1.2.9-1.9 1.2c-.7.3-1.5.4-2.4.4-.9 0-1.7-.1-2.4-.4s-1.3-.7-1.9-1.2c-.5-.5-.9-1.1-1.2-1.8s-.4-1.4-.4-2.2zm5.9 3.8c1.2 0 2.1-.4 2.8-1.1.6-.8 1-1.7 1-2.7s-.3-2-1-2.7c-.6-.7-1.6-1.1-2.8-1.1s-2.1.4-2.8 1.1c-.7.7-1 1.7-1 2.7s.3 2 1 2.7 1.6 1.1 2.8 1.1zm12.2 12.5H213v-6.1-1.1c0-.4-.1-.7-.1-1.1H228c-.1.4-.1.7-.1 1.1V30.5zm-2.1-1.8v-4.8H215v4.8h10.7zm2.2-17.9V21h-2.1V10.8 9.5c0-.4-.1-.8-.1-1.3h2.3c-.1.4-.1.9-.1 1.3v1.3zM246.6 22.9V29.5c0 .4 0 .9.1 1.3h-2.3v-.6-.7-.6V23h-5.6v6.4c0 .4 0 .9.1 1.3h-2.3v-.6-.7-.6V23.1h-3.5c-.6 0-1.3 0-1.9.1v-2c.7.1 1.3.1 1.9.1h17.1c.6 0 1.3 0 1.9-.1v2c-.7 0-1.3-.1-1.9-.1H246.6zm-5-4.1c-1.3 0-2.4-.1-3.4-.4-1-.3-1.9-.6-2.6-1.1-.7-.5-1.2-1-1.6-1.6-.4-.6-.6-1.3-.6-2.1 0-.7.2-1.4.6-2 .4-.6.9-1.2 1.6-1.7.7-.5 1.5-.8 2.5-1.1 1-.3 2.2-.4 3.4-.4 1.3 0 2.4.1 3.4.4 1 .3 1.9.6 2.6 1.1.7.5 1.2 1 1.6 1.6.4.6.6 1.3.6 2s-.2 1.4-.6 2c-.4.6-.9 1.2-1.6 1.6-.7.5-1.6.8-2.6 1.1-.9.5-2 .6-3.3.6zm-5.9-5.1c0 .5.1 1 .4 1.4.3.4.7.8 1.2 1 .5.3 1.1.5 1.9.7.7.2 1.5.2 2.4.2.8 0 1.6-.1 2.3-.2.7-.1 1.3-.4 1.9-.6.5-.3.9-.6 1.2-1s.5-.9.5-1.4c0-.5-.2-1-.5-1.4s-.7-.8-1.2-1.1c-.5-.3-1.1-.5-1.9-.7-.7-.2-1.5-.2-2.3-.2-.9 0-1.6.1-2.4.2-.7.2-1.4.4-1.9.7-.5.3-.9.6-1.2 1-.3.4-.4.9-.4 1.4z"/></g></svg>