<svg xmlns="http://www.w3.org/2000/svg" viewBox="0 0 12 5.1"><g fill="#FFF"><path d="M4.6 3.1c0 .2-.1.3-.3.3H4c-.2 0-.3-.1-.3-.3v-.3c0-.2.1-.3.3-.3h.3c.2 0 .3.1.3.3v.3z"/><path d="M3.7 2.8h.9v2.3h-.9z"/><path d="M2.8 5.1V2.7v-.8h2.7v3.2h.9V1.7c.1-.4-.2-.7-.6-.7H2.6c-.4 0-.7.3-.7.7v3.4h.9zM0 1.4h.9v3.7H0zM11.1 1v3.2H8.3v-.3-1.2V.9h-.9v3.4c0 .4.3.7.7.7h3.2c.4 0 .7-.3.7-.7V.9l-.9.1zM1.8.6c0 .2-.1.3-.3.3h-.3C1 .9.9.8.9.6V.3c0-.2.2-.3.3-.3h.4c.2 0 .3.1.3.3v.3z"/><path d="M.9 1.6c0 .2-.1.3-.3.3H.3c-.2-.1-.3-.2-.3-.3v-.4C0 1 .1.9.3.9h.4c.2 0 .3.1.3.3l-.1.4z"/></g></svg>