<svg xmlns="http://www.w3.org/2000/svg" viewBox="0 0 165 32"><path fill="#707070" d="M28.9 19.6c0 1.1-.9 2-2 2H25c-1.1 0-2-.9-2-2v-1.9c0-1.1.9-2 2-2h1.9c1.1 0 2 .9 2 2v1.9z"/><path fill="#707070" d="M23.1 17.6h5.7V32h-5.7z"/><path d="M17.4 32V17v-5.2h17.4V32h5.8V10.5C40.5 8 38.5 6 36 6H16c-2.5 0-4.4 2-4.4 4.4v21.5h5.8zM0 8.7h5.7V32H0z"/><path fill="#4692C9" d="M69.3 6v20.3H51.9v-1.6-7.4V5.9h-5.8v21.5c0 2.5 2 4.4 4.4 4.4H70.4c2.5 0 4.4-2 4.4-4.4V5.9l-5.5.1zM11.5 4c0 1-.8 1.7-1.7 1.7H7.5c-1 0-1.7-.8-1.7-1.7V1.7C5.8.7 6.6 0 7.5 0h2.4c1 0 1.7.8 1.7 1.7V4z"/><path d="M5.8 9.9c0 1-.8 1.7-1.7 1.7H1.7c-1 0-1.7-.8-1.7-1.7V7.5c0-1 .8-1.7 1.7-1.7H4c1 0 1.7.8 1.7 1.7l.1 2.4z"/><g><path d="M90.1 31.9h-2.3V20.6h2.3v11.3zM95 19.1c0 .7-.2 1.3-.6 1.8-.4.5-1.1.9-1.9 1l-.3-.5c.5-.2.8-.6.9-1-.4 0-.7-.1-.9-.4-.2-.3-.3-.6-.3-.9 0-.5.1-.8.4-1.1.3-.3.7-.5 1.2-.5.4 0 .8.1 1.1.4s.4.6.4 1.2zM112.6 31.9h-2.3v-9h-4.5v9h-2.3v-9H99v9h-2.3V20.6h13.5c1.5 0 2.3.8 2.3 2.3l.1 9zM125.6 29.7c0 .7-.2 1.2-.6 1.6-.4.4-1 .6-1.6.6h-6.7c-.3 0-.6-.1-.9-.2-.3-.1-.5-.3-.7-.5-.2-.2-.4-.4-.5-.7-.1-.3-.2-.6-.2-.9v-9.1h2.3v9.1h6.7v-9.1h2.3l-.1 9.2zM135.3 31.9H133V20.6h2.3v11.3zM148 31.9h-2.3v-9h-6.2v9h-2.3V20.6h8.4c1.5 0 2.3.8 2.3 2.3l.1 9zM160.6 31.9H152c-1.5 0-2.3-.8-2.3-2.3v-6.8c0-.6.2-1.2.6-1.6s.9-.7 1.7-.7h8.7v2.3H152v6.8h8.7l-.1 2.3zM165 30.5c0 .2 0 .4-.1.6-.1.2-.2.4-.3.5s-.3.3-.5.3c-.2.1-.4.1-.6.1-.4 0-.8-.2-1.1-.5-.3-.3-.6-.5-.6-1 0-.4.2-.8.5-1.1.3-.3.7-.4 1.1-.4.2 0 .4 0 .6.1s.4.2.5.3.3.3.3.5c.1.2.2.4.2.6z"/></g></svg>