<svg xmlns="http://www.w3.org/2000/svg" viewBox="0 0 618.9 263.5"><path fill="#707070" d="M238.1 161.1c0 8.9-7.2 16.2-16.2 16.2h-15.3c-8.9 0-16.2-7.2-16.2-16.2v-15.3c0-8.9 7.2-16.1 16.2-16.1h15.3c8.9 0 16.2 7.2 16.2 16.1v15.3z"/><path fill="#707070" d="M190.4 144.9H238v118.6h-47.6z"/><path d="M142.8 263.5V139.7 97.3h142.7v166.2h47.6V86.3c0-20.2-16.4-36.7-36.7-36.7H131.7C111.5 49.6 95 66 95 86.3v177.2h47.8zM0 71.4h47.6v192.1H0z"/><path fill="#4692C9" d="M571.3 49.3v166.6H428.6v-12.2-61-93.4H381v177.6c0 20.2 16.4 36.7 36.7 36.7H582.3c20.2 0 36.7-16.4 36.7-36.7V49.3h-47.7zM95.2 33.5c0 7.8-6.3 14.1-14.1 14.1H61.7c-7.8 0-14.1-6.3-14.1-14.1V14.1C47.6 6.3 53.9 0 61.7 0h19.4c7.8 0 14.1 6.3 14.1 14.1v19.4z"/><path d="M47.6 81.1c0 7.8-6.3 14.1-14.1 14.1H14.1C6.3 95.2 0 88.9 0 81.1V61.7c0-7.8 6.3-14.1 14.1-14.1h19.4c7.8 0 14.1 6.3 14.1 14.1v19.4z"/></svg>