<svg xmlns="http://www.w3.org/2000/svg" viewBox="0 0 81.4 65"><path fill="#FFB45D" d="M49.2 27.5v36.9h-3V27.9c-5.7-1.6-27.3-7.1-32.3-8.3V65h67.4V20.7c-3.1.7-24.5 5.3-32.1 6.8z"/><path fill="#3A3B3D" d="M13.9 0v15.7l33.7 9 33.7-7.4V0H13.9zm34 20.1c-1.8 0-3.2-1.4-3.2-3.1 0-1.7 1.4-3 3.2-3 1.8 0 3.2 1.4 3.2 3 0 1.7-1.4 3.1-3.2 3.1z"/><g fill="#5FC4E5" stroke="#FFF" stroke-width=".5" stroke-miterlimit="10"><path d="M-.2 30.1h33.4v2H-.2zM-.2 33.8h33.4v2H-.2zM-.2 37.4h33.4v2H-.2zM-.2 41h33.4v2H-.2zM-.2 44.7h33.4v2H-.2zM-.2 48.3h33.4v2H-.2zM-.2 52h33.4v2H-.2zM-.2 55.6h33.4v2H-.2zM-.2 59.3h33.4v2H-.2zM-.2 62.9h33.4v2H-.2z"/></g><path fill="#5FC4E5" stroke="#FFF" stroke-width=".5" stroke-miterlimit="10" d="M33.3 28.4s-21.6.2-32.7-4l.3-1.9s17.2 4.2 32.4 3.9v2z"/></svg>