<svg xmlns="http://www.w3.org/2000/svg" viewBox="0 0 105.5 66.3"><path fill="#3A3B3D" d="M0 0h87.3v66.3H0z"/><path fill="#FFF" d="M8.6 12.8v41.9h33.8V12.8H8.6zm27.1 38H16.9c-.8-9.4 2.9-14.8 4.9-17.1-2.1-1.5-3.5-3.9-3.5-6.6 0-4.4 3.6-8 8-8s8 3.6 8 8c0 2.7-1.3 5-3.3 6.5 5.4 7.1 4.7 17.2 4.7 17.2z"/><path fill="none" stroke="#FFF" stroke-width="3" stroke-miterlimit="10" d="M51.9 15.4h23.7M52.3 26.9H76M52.2 39h23.7M52.1 51.6h23.7"/><path fill="none" stroke="#FF6365" stroke-width="2" stroke-linecap="round" stroke-linejoin="round" stroke-miterlimit="10" d="M80 4.9s6.1 1.6 14.5 0c0 0 3.7-1 7 1.1 0 0 5.1 2.9 2 8.8 0 0-2.1 4.3-8.6 2.3 0 0-4.5-1.2-7.8-5.4 0 .1-2.9-3.3-7.1-6.8z"/></svg>