<svg xmlns="http://www.w3.org/2000/svg" viewBox="0 0 73.6 68.1"><path fill="#FF7212" d="M73.6 20.7v-2.9c0-3.2 0-6.5-4.8-6.5H32.7V6c0-3.4-2.9-6-6-6H5.4C1.4 0 0 3.9 0 8.2v12.5h73.6z"/><path fill="#3A3B3D" d="M0 24.5h73.7v43.6H0z"/><path fill="#FFC408" d="M61 30.9c-.6 0-1.1-.3-1.6-.8l-8.5-11.9c-.3-.5-.4-1-.1-1.6s.8-.8 1.3-.8H55V2.2c0-.8.7-1.5 1.5-1.5h8.9c.8 0 1.5.7 1.5 1.5v13.5h2.9c.5 0 1 .3 1.2.7s.2 1-.1 1.4L62.4 30c-.3.6-.8.9-1.4.9z"/><path fill="#FFF" d="M65.4 1.5c.4 0 .7.3.7.7v14.3h3.7c.3 0 .5.2.5.3.1.1.1.4 0 .6l-8.5 12.2c-.2.3-.5.4-.8.4-.3 0-.7-.2-1-.5l-8.5-11.9c-.2-.3-.1-.7-.1-.8.1-.1.3-.4.7-.4h3.7V2.2c0-.4.3-.7.7-.7h8.9m0-1.5h-8.9c-1.2 0-2.2 1-2.2 2.2V15h-2.2c-1.8 0-2.9 2.1-1.8 3.6l8.6 12c.7.7 1.4 1 2.1 1 .8 0 1.5-.4 2.1-1l8.5-12.2c1-1.4 0-3.3-1.7-3.3h-2.2V2.2c0-1.2-1-2.2-2.3-2.2z"/></svg>