<svg xmlns="http://www.w3.org/2000/svg" viewBox="0 0 76.1 89.1"><path fill="#3A3B3D" d="M19.8 47.9l1.6 5s.4 3.2 3.8 2.9c0 0 2 .2 1.9-3L25.6 48h-5.8zM25.2 44.8l-.6-1.8 3.1-8.4v10.3h20.8l-.2-10.8 3.1 8-.8 2.7h5.8l.8-3.2-4.1-13.4C52 23.9 48.5 24 48.5 24H27.6l-1.2.1s-2.9 0-3.9 4.1l-4 14.2.8 2.4h5.9zM35.4 65.4v-.5s2.5-4.4 5.5.1v.4h7.9L48.5 48H27.7v17.4h7.7zM43.1 66.5l-1.5 18.6s-.2 4.1 3.7 4c0 0 3.6.3 3.8-3.3l2.1-19.3h-8.1zM25.9 66.5l1.8 19.1s0 3.8 4.5 3.5c0 0 3.3.2 3.3-4l-1.8-18.6h-7.8zM50.1 47.9l-1.4 4.7c.4 3.2 2 3.2 2 3.2 3.5.5 4-2.8 4-2.8l1.3-5.1h-5.9z"/><path fill="#65A8F1" d="M35.4 25.9h4.3l-.8 3.7h-2.5zM39 44.8l2.4-4.1-2.5-9.7h-2.5l-1.6 9.8 2.7 4z"/><path fill="#3A3B3D" d="M37.6 4c-.7 0-1.4.1-2 .2-2.4-.3-5.7-1.3-7.8-4.2 0 0-1.1 7.4 1.4 8.9-.8 1.4-1.3 3.1-1.3 4.9 0 5.4 4.4 9.7 9.7 9.7 5.4 0 9.7-4.4 9.7-9.7C47.4 8.4 43 4 37.6 4z"/><path fill="#65A8F1" d="M42.3 29.4H46v1.5h-3.7z"/><path fill="#3A3B3D" d="M0 46h76.1v19.6H0z"/><path fill="#3A3B3D" d="M5 64.8l1.1 23.9h4.2l.8-23.9zM64.4 64.8l.8 23.9h4.3l1-23.9zM33.6 66.5h9.6l-.3 3.1h-9z"/></svg>