<svg xmlns="http://www.w3.org/2000/svg" viewBox="0 0 84.5 99.9"><circle fill="#3A3B3D" cx="69.5" cy="40.5" r="7.5"/><circle fill="#3A3B3D" cx="14" cy="39.8" r="7.5"/><path fill="#3A3B3D" d="M29.4 39.1h1l.1 56.5c0 .1.1 4.6 4.6 4.2h.1c.7 0 3.1-1.1 3.1-4.8l-.1-23.5.1-.1c.1-.1 1.4-2.4 3.5-2.4 1.3 0 2.5.9 3.5 2.5l.1.1.9 23.4c-.3 3 1.4 4.9 3.6 4.8H50.2c1 0 3.4-1.1 3.5-4l-.9-57.2 1-.1L56.1 59c.4 3.2 2.4 3.4 2.5 3.4h.6c2.8 0 2.9-3.2 2.9-3.3l-3.7-27c-.5-4-2.6-4.2-3-4.2H55l-.1-.1H29.4c-.2 0-1.6.1-1.6.1v-.5l-.1.5c-.4 0-2.5.2-3 4.2L22 58.3s-.1 2.5 1 3.7c.5.5 1.1.7 1.9.6l.1.5.1-.5c.4 0 2.2-.2 2.6-3.3l1.7-20.2z"/><path fill="#3A3B3D" d="M22.2 62.7c-1.4-1.5-1.3-4.3-1.3-4.5l1-10H4.4s-2.1-.2-2.5 3.3L0 70s-.2 3.7 2.5 3.4c0 0 1.9.2 2.3-2.7L6 56.6l.1 40s.1 3.3 3.1 3.3c0 0 3.1.1 3.1-3.3l-.1-17s2-3.5 4.4.1l.6 16.9s-.2 3.3 3 3.3c0 0 3 0 3-3.3l-.6-33.5c-.1-.2-.3-.3-.4-.4zM81.9 52.2c-.5-3.5-2.5-3.3-2.5-3.3h-.1-17.6L63.1 59c0 1.1-.4 2.7-1.6 3.7v34.5s.2 2.7 3.1 2.7c0 0 3.2 0 3.2-2.7l-.1-17s2-3.5 4.4.1l.6 16.9s0 2.6 3 2.6c0 0 3 .3 3-2.6L78 56.9l1.6 14.4c.3 2.6 2.1 2.7 2.1 2.7 2.8.4 2.9-2.7 2.9-2.7l-2.7-19.1z"/><path fill="#65A8F1" d="M38.7 29.4h4.9l-1 4.1h-2.8zM39.8 35.2h2.8l2.8 10.9-3.4 6.1-4-6z"/><path fill="#3A3B3D" d="M41.2 4.6c-.8 0-1.5.1-2.3.2-2.8-.4-6.5-1.5-8.8-4.8 0 0-1.2 8.4 1.5 10.1-.9 1.6-1.5 3.5-1.5 5.5 0 6.1 4.9 11 11 11s11-4.9 11-11c.2-6.1-4.8-11-10.9-11z"/><path fill="#65A8F1" d="M46.5 33.3h4.2V35h-4.2z"/></svg>