<?xml version="1.0" encoding="utf-8"?>
<!-- Generator: Adobe Illustrator 17.1.0, SVG Export Plug-In . SVG Version: 6.00 Build 0)  -->
<!DOCTYPE svg PUBLIC "-//W3C//DTD SVG 1.1//EN" "http://www.w3.org/Graphics/SVG/1.1/DTD/svg11.dtd">
<svg version="1.1" id="Layer_1" xmlns="http://www.w3.org/2000/svg" xmlns:xlink="http://www.w3.org/1999/xlink" x="0px" y="0px"
	 viewBox="0 0 167.2 150.6" enable-background="new 0 0 167.2 150.6" xml:space="preserve">
<g>
	<path fill="#707070" d="M29.3,78.4c0,1.1-0.9,2-2,2h-1.9c-1.1,0-2-0.9-2-2v-1.9c0-1.1,0.9-2,2-2h1.9c1.1,0,2,0.9,2,2V78.4z"/>
	<rect x="23.4" y="76.4" fill="#707070" width="5.8" height="14.6"/>
	<path d="M17.6,91c0-5.1,0-10.1,0-15.2c0-1.2,0-2.5,0-3.7v-1.5h1.5c0.5,0,0.9,0,1.4,0c1,0,2,0,2.9,0c2,0,3.9,0,5.8,0
		c0.8,0,1.5,0,2.3,0c0.7,0,1.4,0,2.1,0h1.5v1.5c0,1.2,0,2.5,0,3.7c0,5.1,0,10.1,0,15.2H41c0-7.3,0-14.5,0-21.8c0-2.5-2-4.5-4.5-4.5
		c-0.4,0-0.9,0-1.3,0c-5.9,0-11.7,0-17.6,0c-0.4,0-0.9,0-1.3,0c-2.5,0-4.5,2-4.5,4.5c0,7.3,0,14.5,0,21.8H17.6z"/>
	<rect x="0" y="67.4" width="5.8" height="23.6"/>
	<path fill="#4692C9" d="M70.2,64.7c0,3.8,0,7.6,0,11.5c0,2.5,0,5,0,7.5v1.5h-1.5c-0.9,0-1.8,0-2.8,0c-2.6,0-5.2,0-7.8,0
		c-1.3,0-2.7,0-4,0h-1.5v-1.5c0-2.5,0-5,0-7.5c0-3.8,0-7.6,0-11.5h-5.9c0,7.3,0,14.5,0,21.8c0,2.5,2,4.5,4.5,4.5c0.4,0,0.9,0,1.3,0
		c5.8,0,11.7,0,17.5,0c0.4,0,0.9,0,1.3,0c2.5,0,4.5-2,4.5-4.5c0-7.3,0-14.5,0-21.8H70.2z"/>
	<path fill="#4692C9" d="M11.7,62.7c0,1-0.8,1.7-1.7,1.7H7.6c-1,0-1.7-0.8-1.7-1.7v-2.4c0-1,0.8-1.7,1.7-1.7H10c1,0,1.7,0.8,1.7,1.7
		V62.7z"/>
	<path d="M5.9,68.6c0,1-0.8,1.7-1.7,1.7H1.7c-1,0-1.7-0.8-1.7-1.7v-2.4c0-1,0.8-1.7,1.7-1.7h2.4c1,0,1.7,0.8,1.7,1.7V68.6z"/>
</g>
<g>
	<path fill="#707070" d="M29.3,138.1c0,1.1-0.9,2-2,2h-1.9c-1.1,0-2-0.9-2-2v-1.9c0-1.1,0.9-2,2-2h1.9c1.1,0,2,0.9,2,2V138.1z"/>
	<rect x="23.4" y="136.1" fill="#707070" width="5.8" height="14.6"/>
	<path d="M17.6,150.6c0-5.1,0-10.1,0-15.2c0-1.2,0-2.5,0-3.7v-1.5h1.5c0.5,0,0.9,0,1.4,0c1,0,2,0,2.9,0c2,0,3.9,0,5.8,0
		c0.8,0,1.5,0,2.3,0c0.7,0,1.4,0,2.1,0h1.5v1.5c0,1.2,0,2.5,0,3.7c0,5.1,0,10.1,0,15.2H41c0-7.3,0-14.5,0-21.8c0-2.5-2-4.5-4.5-4.5
		c-0.4,0-0.9,0-1.3,0c-5.9,0-11.7,0-17.6,0c-0.4,0-0.9,0-1.3,0c-2.5,0-4.5,2-4.5,4.5c0,7.3,0,14.5,0,21.8H17.6z"/>
	<rect x="0" y="127" width="5.8" height="23.6"/>
	<path fill="#4692C9" d="M70.2,124.3c0,3.8,0,7.6,0,11.5c0,2.5,0,5,0,7.5v1.5h-1.5c-0.9,0-1.8,0-2.8,0c-2.6,0-5.2,0-7.8,0
		c-1.3,0-2.7,0-4,0h-1.5v-1.5c0-2.5,0-5,0-7.5c0-3.8,0-7.6,0-11.5h-5.9c0,7.3,0,14.5,0,21.8c0,2.5,2,4.5,4.5,4.5c0.4,0,0.9,0,1.3,0
		c5.8,0,11.7,0,17.5,0c0.4,0,0.9,0,1.3,0c2.5,0,4.5-2,4.5-4.5c0-7.3,0-14.5,0-21.8H70.2z"/>
	<path fill="#4692C9" d="M11.7,122.4c0,1-0.8,1.7-1.7,1.7H7.6c-1,0-1.7-0.8-1.7-1.7V120c0-1,0.8-1.7,1.7-1.7H10c1,0,1.7,0.8,1.7,1.7
		V122.4z"/>
	<path d="M5.9,128.2c0,1-0.8,1.7-1.7,1.7H1.7c-1,0-1.7-0.8-1.7-1.7v-2.4c0-1,0.8-1.7,1.7-1.7h2.4c1,0,1.7,0.8,1.7,1.7V128.2z"/>
</g>
<g>
	<path fill="#707070" d="M29.3,19.8c0,1.1-0.9,2-2,2h-1.9c-1.1,0-2-0.9-2-2v-1.9c0-1.1,0.9-2,2-2h1.9c1.1,0,2,0.9,2,2V19.8z"/>
	<rect x="23.4" y="17.8" fill="#707070" width="5.8" height="14.6"/>
	<path d="M17.6,32.4c0-5.1,0-10.1,0-15.2c0-1.2,0-2.5,0-3.7V12h1.5c0.5,0,0.9,0,1.4,0c1,0,2,0,2.9,0c2,0,3.9,0,5.8,0
		c0.8,0,1.5,0,2.3,0c0.7,0,1.4,0,2.1,0h1.5v1.5c0,1.2,0,2.5,0,3.7c0,5.1,0,10.1,0,15.2H41c0-7.3,0-14.5,0-21.8c0-2.5-2-4.5-4.5-4.5
		c-0.4,0-0.9,0-1.3,0c-5.9,0-11.7,0-17.6,0c-0.4,0-0.9,0-1.3,0c-2.5,0-4.5,2-4.5,4.5c0,7.3,0,14.5,0,21.8H17.6z"/>
	<rect x="0" y="8.8" width="5.8" height="23.6"/>
	<path fill="#4692C9" d="M70.2,6.1c0,3.8,0,7.6,0,11.5c0,2.5,0,5,0,7.5v1.5h-1.5c-0.9,0-1.8,0-2.8,0c-2.6,0-5.2,0-7.8,0
		c-1.3,0-2.7,0-4,0h-1.5V25c0-2.5,0-5,0-7.5c0-3.8,0-7.6,0-11.5h-5.9c0,7.3,0,14.5,0,21.8c0,2.5,2,4.5,4.5,4.5c0.4,0,0.9,0,1.3,0
		c5.8,0,11.7,0,17.5,0c0.4,0,0.9,0,1.3,0c2.5,0,4.5-2,4.5-4.5c0-7.3,0-14.5,0-21.8H70.2z"/>
	<path fill="#4692C9" d="M11.7,4.1c0,1-0.8,1.7-1.7,1.7H7.6c-1,0-1.7-0.8-1.7-1.7V1.7c0-1,0.8-1.7,1.7-1.7H10c1,0,1.7,0.8,1.7,1.7
		V4.1z"/>
	<path d="M5.9,10c0,1-0.8,1.7-1.7,1.7H1.7c-1,0-1.7-0.8-1.7-1.7V7.6c0-1,0.8-1.7,1.7-1.7h2.4c1,0,1.7,0.8,1.7,1.7V10z"/>
</g>
<g>
	<path d="M91.3,31.9h-2.3V20.5h2.3V31.9z"/>
	<path d="M96.3,18.9c0,0.7-0.2,1.3-0.6,1.8c-0.4,0.5-1.1,0.9-1.9,1l-0.3-0.5c0.5-0.2,0.8-0.6,0.9-1c-0.4,0-0.7-0.1-0.9-0.4
		c-0.2-0.3-0.3-0.6-0.3-0.9c0-0.5,0.1-0.8,0.4-1.1c0.3-0.3,0.7-0.5,1.2-0.5c0.4,0,0.8,0.1,1.1,0.4S96.3,18.3,96.3,18.9z"/>
	<path d="M114.1,31.9h-2.3v-9.1h-4.6v9.1h-2.3v-9.1h-4.6v9.1h-2.3V20.5h13.7c1.5,0,2.3,0.8,2.3,2.3V31.9z"/>
	<path d="M127.3,29.7c0,0.7-0.2,1.2-0.6,1.6s-1,0.6-1.6,0.6h-6.8c-0.3,0-0.6-0.1-0.9-0.2c-0.3-0.1-0.5-0.3-0.7-0.5
		c-0.2-0.2-0.4-0.4-0.5-0.7c-0.1-0.3-0.2-0.6-0.2-0.9v-9.2h2.3v9.2h6.8v-9.2h2.3V29.7z"/>
	<path d="M137.1,31.9h-2.3V20.5h2.3V31.9z"/>
	<path d="M150,31.9h-2.3v-9.1h-6.3v9.1h-2.3V20.5h8.5c1.5,0,2.3,0.8,2.3,2.3V31.9z"/>
	<path d="M162.7,31.9H154c-1.5,0-2.3-0.8-2.3-2.3v-6.9c0-0.6,0.2-1.2,0.6-1.6c0.4-0.4,0.9-0.7,1.7-0.7h8.8v2.3H154v6.9h8.8V31.9z"/>
	<path d="M167.2,30.5c0,0.2,0,0.4-0.1,0.6c-0.1,0.2-0.2,0.4-0.3,0.5s-0.3,0.3-0.5,0.3c-0.2,0.1-0.4,0.1-0.6,0.1
		c-0.4,0-0.8-0.2-1.1-0.5S164,31,164,30.5c0-0.4,0.2-0.8,0.5-1.1c0.3-0.3,0.7-0.4,1.1-0.4c0.2,0,0.4,0,0.6,0.1
		c0.2,0.1,0.4,0.2,0.5,0.3s0.3,0.3,0.3,0.5C167.1,30.1,167.2,30.3,167.2,30.5z"/>
</g>
<g>
	<path d="M85.7,91.6h-2.3V80.2h2.3V91.6z"/>
	<path d="M98.5,91.6h-2.3v-9.1H90v9.1h-2.3V80.2h8.5c1.5,0,2.3,0.8,2.3,2.3V91.6z"/>
	<path d="M111.3,91.6h-8.8c-1.5,0-2.3-0.8-2.3-2.3v-6.9c0-0.6,0.2-1.2,0.6-1.6c0.4-0.4,0.9-0.7,1.7-0.7h8.8v2.3h-8.8v6.9h8.8V91.6z"
		/>
	<path d="M115.7,90.2c0,0.2,0,0.4-0.1,0.6c-0.1,0.2-0.2,0.4-0.3,0.5s-0.3,0.3-0.5,0.3c-0.2,0.1-0.4,0.1-0.6,0.1
		c-0.4,0-0.8-0.2-1.1-0.5s-0.5-0.7-0.5-1.1c0-0.4,0.2-0.8,0.5-1.1c0.3-0.3,0.7-0.4,1.1-0.4c0.2,0,0.4,0,0.6,0.1
		c0.2,0.1,0.4,0.2,0.5,0.3s0.3,0.3,0.3,0.5C115.7,89.8,115.7,90,115.7,90.2z"/>
</g>
</svg>
