<?xml version="1.0" encoding="utf-8"?>
<!-- Generator: Adobe Illustrator 17.1.0, SVG Export Plug-In . SVG Version: 6.00 Build 0)  -->
<!DOCTYPE svg PUBLIC "-//W3C//DTD SVG 1.1//EN" "http://www.w3.org/Graphics/SVG/1.1/DTD/svg11.dtd">
<svg version="1.1" id="_x3C_레이어_x3E_" xmlns="http://www.w3.org/2000/svg" xmlns:xlink="http://www.w3.org/1999/xlink"
	 x="0px" y="0px" viewBox="0 0 109.4 84.5" enable-background="new 0 0 109.4 84.5" xml:space="preserve">
<g>
	<path fill="#321C49" d="M37.5,28.7c0,0-0.3,1.6,0,2.4c0,0,0.2,0.5,0,1.1c0,0-0.6,0.8-0.4,1.9c0,0,0,0.4-0.1,1.2c0,0,0,1.4,0.5,1.8
		c0,0,0.7,0.9,0.8,1.3c0,0,0.4,0.8,1.1,0c0,0,1.7-2.5,3.6-3.8c0,0,1.6-0.5,2.6-0.4c0,0,0.8,0,1-0.5c0,0,0.1-0.4-0.5-0.8
		c0,0-0.5-0.7,0.4-1.6c0,0,0.8-0.2,1.2-0.6c0,0,0.6-0.7,0-2.1c0,0-0.2-0.5,0.3-1.7c0,0,0.5-1.1,1.8-1.9c0,0,0.9-0.9,0-1.3
		c0,0-1.1,0-1.2-1.1c0,0,0-2.2-2.7-2c0,0-1.6-0.2-2.2,0.4c0,0-0.4,0.2-0.4,0.7c0,0-0.1,0.3-0.9,0.3c0,0-1.3-0.3-2.3-1.1
		c0,0-2.5-1.8-4.1-1.6c0,0-2,0.1-3.8,1.5c0,0-2.3,1.9-1.6,3.2c0,0-0.1,0.3,1,0c0,0,0.7,0.2,0.1,1.3c0,0-0.4,0.2-1,0.5
		c0,0-0.4,0.2-0.8,0c0,0-0.8-0.6-1.2-0.3c0,0-0.3,0.4,0,0.8c0,0,0.1,0.3-0.3,0.3c0,0-0.9,0.4,0.7,0.6c0,0,0.6,0.2,0.9,0.5
		c0,0,1,0.6,1.6,0c0,0,0.8-0.3,1.3-1.4c0,0,0.5-0.9,1.2-1.4c0,0,1.3-0.8,1.3,0.5c0,0-0.5,1.4,0.6,1.5c0,0,0.9,0.1,1.3,0
		C37.1,27.2,37.9,27.1,37.5,28.7z"/>
	<path fill="#321C49" d="M97.6,69.9c0,0-2.7,1.2-3,3.2c0,0,0.2,0.4-0.3,1.5c0,0-1.6,2.9,2.6,2.2c0,0,3.2-1.3,4.9,0.1
		c0,0,3.9,3.9,6.1,1.2c0,0,2.1-3.4,0.5-7.1c0,0-1.2-3-2.8-2c0,0-0.4-0.1-0.9,1c0,0-0.7,0-1-0.9C103.6,69,101.2,66.6,97.6,69.9z"/>
	<path fill="#321C49" d="M38.7,64.7c0,0,2.4-0.6,1.7,1.5c0,0-3.4,7-8.4,12.2c0,0-1.9,2.1-2,4c0,0,1.1,2.7-1.2,1.9
		c0,0-1.9-0.4-1.9-10.6c0,0,0.1-4-3.5-6.1c0,0-1.7-2.3,0.4-6.5c0,0-0.5-1.9-5.2-3c0,0-2.2,0.3-3.1-1.9c0,0-2.5-2.7-5.6-6.5
		c0,0-2.4-1.9,0.1-5.8c0,0,0.7-4.4-1.7-7.8c0,0-0.4-2.2-4.4-0.6c0,0-3.2,2.6-3.9,1.2c0,0-0.2-0.9,1-1.4c0,0,0.7-0.9,0.1-1.9
		c0,0-1.4-1.3,2.2-3.5c0,0,0.4-1.3,0.7-2.9c0,0,2.1-2.9,5.1-1.4c0,0,1.6,0.7,2.6,1.8c0,0,0.8,1.3,4.5,1.4c0,0,2.5,1.1,3.2-0.6
		c0,0-2.2-0.6-0.8-2c0,0,1.3-2.6,3.4,1.1c0,0,6.5-0.8,9.2,3.8c0,0,1,0.9,2.2,1.9c0,0,2.7,3-0.2,3.4c0,0-0.5-0.7-4.4-0.4
		c0,0-2-0.3-4,0.8c0,0-2.7,0.8-1.3,2.2c0,0,3.2,4.3,3.8,3.2c0,0,1.3-1.6,0.7-3.2c0,0,0.7-3.1,2.9-1.3c0,0,0.8,2.4,2.9,3.5
		c0,0,3.3,2.9-0.2,3.8c0,0-6.2,2.4-8.5,6.9c0,0-1.4,1.4-3.6,1.2c0,0-3.9-0.3-2.9,1.9c0,0,0.1,1.2,1.1,0.9c0,0,1.9-1.3,1.7,0
		c0,0,1.4,1.1,2.6,2.4c0,0,1,1.1,2,0.5c0,0,2.1-1.7,7.6,3.3C33.7,62.3,36.9,64.8,38.7,64.7z"/>
	<path fill-rule="evenodd" clip-rule="evenodd" fill="#FFC408" d="M89.3,17.2c-2.7,0-4.9-2.1-4.9-4.7c0-2.6,2.2-4.7,4.9-4.7
		c2.7,0,4.9,2.1,4.9,4.7C94.2,15.1,92,17.2,89.3,17.2z M100.5,6.4c-1.5-2.6-3.9-4.6-7.1-5.7c-0.6-0.2-1.1-0.3-1.7-0.4
		c-0.6-0.1-1.3-0.2-2-0.2h-0.4h-0.4c-0.7,0-1.4,0.1-2,0.2c-0.6,0.1-1.2,0.3-1.7,0.4c-3.2,1.1-5.6,3.1-7.1,5.7
		c-1,1.8-1.7,4.1-1.6,6.8c0.1,1.3,0.4,2.4,0.8,3.4c0.4,1,0.9,1.9,1.4,2.8c2.1,3.4,5,6.5,6.6,10.4c0.8,2,1.5,4.1,2.2,6.3
		c0.6,2.2,1.2,4.5,1.4,7h0.4h0.4c0.2-2.5,0.8-4.8,1.4-7c0.6-2.2,1.3-4.3,2.2-6.3c1.6-3.9,4.5-7,6.6-10.4c0.6-0.9,1-1.8,1.4-2.8
		c0.4-1,0.7-2.2,0.8-3.4C102.2,10.4,101.5,8.2,100.5,6.4z"/>
	<path fill="#321C49" d="M109.1,26.9c-0.3-3.2-4.7-2.4-4.7-2.4c-3.2,1.7-6.2,1.4-6.2,1.4c-0.1,0-0.2-0.1-0.3-0.1
		c-1.2,1.7-2.3,3.5-3.1,5.5c-1,2.3-1.8,4.6-2.4,7c-0.6,2.2-1.3,4.9-1.5,7.8l-0.1,0.9h-2.8l-0.1-0.9c-0.3-2.9-0.9-5.6-1.5-7.8
		c-0.7-2.4-1.5-4.7-2.4-7C82.9,29,81.6,27,80.2,25c-1.4,0.1-2.3,0.8-2.3,0.8c-1.9,0.5-2.1,2.4-2.1,2.4c-0.2,2.6-1.4,2.2-1.4,2.2
		c-1.7-1-1.7,0.2-1.7,0.2c-0.1,1.4,0,2.6,0,2.6c-0.8,0.6-2.5,0.1-2.5,0.1c-2.4-0.6-4.7,1.3-4.7,1.3c-0.8,0.3-3.2-1.3-3.2-1.3
		C59.1,32,56.7,36,56.7,36c-2,1.9-2.1,3.2-2.1,3.2c-0.6,1.1,1.3,1.2,1.3,1.2c1,2.1-1.5,2.5-1.5,2.5c-1.8-2.2-2.7-1.6-2.7-1.6
		c-2.1,1.4,0.2,2.4,0.2,2.4c1.8,1.5,0.3,2.9,0.3,2.9C49,47.3,50,49.8,50,49.8c1.3,0.7,0.4,2.2,0.4,2.2c-1.5,0.5-2.3,1.9-2.3,1.9
		c-2.5,3.3-0.2,6.7-0.2,6.7c1.8,2.5,5.7,1,5.7,1c4.7,0.3,4.2,5.3,4.2,5.3C56.5,68,57,69.6,57,69.6c1.1,2,1.5,3.6,1.5,3.6
		c0.5,2.5,1.5,2.9,1.5,2.9c7.3-2.4,7.9-10.5,7.9-10.5C68.5,61.9,71,61,71,61c1.5-0.9-0.1-1.3-0.1-1.3c-2.2,0-4-2.7-4-2.7
		c-1.3-2,0.7-1.4,0.7-1.4c1.8,1,3.6,2.8,3.6,2.8c2.2-0.4,3.3-2.4,3.3-2.4c0.7-1.3-1.2-1.1-1.2-1.1c-1.4-0.4-0.7-1.3-0.7-1.3
		c1.2-1.5,2.8,0.2,2.8,0.2c1.6,1.4,2.2,1.8,2.2,1.8c0.6-1,1.5,0.3,1.5,0.3c0.7,2.4,3.7,5,3.7,5c1.2,0.6,0.8-2.1,0.8-2.1
		c0.3-2.8,3.2-3,3.2-3c3.7,1.8,3.5,5.8,3.5,5.8c-1.2-0.3-1.1,1-1.1,1c0.7,2,3.6,3.4,3.6,3.4c1.7,0.4,0.4-1.6,0.4-1.6
		c-1.1-0.8-1-3.2-1-3.2c0.3-1.2,0.8-1.2,0.8-1.2c1.6-0.9,0.7-3,0.7-3c0.7-1.1,2.6-1.3,2.6-1.3c2.8,0.1,1.5-2,1.5-2
		c-1.4-2.2-1.6-4.8-1.6-4.8c-0.2-1.4,1.7-0.4,1.7-0.4c0.8,1.8,1.7,0.5,1.7,0.5c0-1.3,0.5-2.3,0.5-2.3c1.7-2.1,2.3-5.9,2.3-5.9
		c0.7-2.3-2.8-1.3-2.8-1.3c-1.6,0.1,0.5-2.6,0.5-2.6c1.4-1.9,2.8-0.9,2.8-0.9c1.1-0.1,2,1.7,2,1.7c1.8,1.3,2.2-1.7,2.2-1.7
		c-0.8-1.1,0.8-3.5,0.8-3.5C110.3,29,109.1,26.9,109.1,26.9z"/>
</g>
</svg>
