<?xml version="1.0" encoding="utf-8"?>
<!-- Generator: Adobe Illustrator 17.1.0, SVG Export Plug-In . SVG Version: 6.00 Build 0)  -->
<!DOCTYPE svg PUBLIC "-//W3C//DTD SVG 1.1//EN" "http://www.w3.org/Graphics/SVG/1.1/DTD/svg11.dtd">
<svg version="1.1" id="_x3C_레이어_x3E_" xmlns="http://www.w3.org/2000/svg" xmlns:xlink="http://www.w3.org/1999/xlink"
	 x="0px" y="0px" viewBox="0 0 87.3 61.6" enable-background="new 0 0 87.3 61.6" xml:space="preserve">
<path fill="#3A3B3D" d="M44.7,28.5c0,0-33.6,14.2-44.7-23.4C0,5.1,36.9-12.6,44.7,28.5z"/>
<path fill="#4BAA00" d="M44.7,28.5c0,0,4.5-36.2,42.6-27C87.3,1.5,90.3,36.6,44.7,28.5z"/>
<path fill="#3A3B3D" d="M5.7,61.6c0,0,7.5-16.9,25.8-15.2c0,0,7.5,1.1,16,7.2c0,0,9.1,5,19.8,3.4c0,0,8.5-1.9,13.4-9
	c0,0-1.2,11.3-13.6,12.9c0,0-10.1,1.5-19.6-5.2c0,0-10.8-5.9-19.5-5.1C28,50.6,17.5,49.4,5.7,61.6z"/>
<path fill="#3A3B3D" d="M16.9,60.8c0,0,3.7-6.1,12.2-6.8c0,0,10.5-0.7,13.7,5.4C42.9,59.5,29.4,53.8,16.9,60.8z"/>
<path fill="#3A3B3D" d="M44.7,53.5c-1.1,0-1.9-0.9-1.9-2.1V30.5c0-1.2,0.9-2.1,1.9-2.1c1.1,0,1.9,0.9,1.9,2.1v20.9
	C46.6,52.6,45.7,53.5,44.7,53.5z"/>
</svg>
