<?xml version="1.0" encoding="utf-8"?>
<!-- Generator: Adobe Illustrator 17.1.0, SVG Export Plug-In . SVG Version: 6.00 Build 0)  -->
<!DOCTYPE svg PUBLIC "-//W3C//DTD SVG 1.1//EN" "http://www.w3.org/Graphics/SVG/1.1/DTD/svg11.dtd">
<svg version="1.1" id="Layer_1" xmlns="http://www.w3.org/2000/svg" xmlns:xlink="http://www.w3.org/1999/xlink" x="0px" y="0px"
	 viewBox="0 0 252.8 169.5" enable-background="new 0 0 252.8 169.5" xml:space="preserve">
<g>
	<path fill="#707070" d="M29.8,19.8c0,1.1-0.9,2-2,2h-1.9c-1.1,0-2-0.9-2-2v-1.9c0-1.1,0.9-2,2-2h1.9c1.1,0,2,0.9,2,2V19.8z"/>
	<rect x="23.9" y="17.8" fill="#707070" width="5.9" height="14.6"/>
	<path d="M18.1,32.4c0-5.1,0-10.1,0-15.2c0-1.2,0-2.5,0-3.7V12h1.5c0.5,0,0.9,0,1.4,0c1,0,2,0,2.9,0c2,0,3.9,0,5.9,0
		c0.8,0,1.5,0,2.3,0c0.7,0,1.4,0,2.1,0h1.5v1.5c0,1.2,0,2.5,0,3.7c0,5.1,0,10.1,0,15.2h5.9c0-7.3,0-14.5,0-21.8c0-2.5-2-4.5-4.5-4.5
		c-0.4,0-0.9,0-1.3,0c-5.8,0-11.7,0-17.5,0c-0.4,0-0.9,0-1.3,0c-2.5,0-4.5,2-4.5,4.5c0,7.3,0,14.5,0,21.8H18.1z"/>
	<rect x="0.5" y="8.8" width="5.8" height="23.6"/>
	<path fill="#4692C9" d="M70.7,6.1c0,3.8,0,7.6,0,11.5c0,2.5,0,5,0,7.5v1.5h-1.5c-0.9,0-1.8,0-2.8,0c-2.6,0-5.2,0-7.8,0
		c-1.3,0-2.7,0-4,0h-1.5V25c0-2.5,0-5,0-7.5c0-3.8,0-7.6,0-11.5h-5.9c0,7.3,0,14.5,0,21.8c0,2.5,2,4.5,4.5,4.5c0.4,0,0.9,0,1.3,0
		c5.9,0,11.7,0,17.6,0c0.4,0,0.9,0,1.3,0c2.5,0,4.5-2,4.5-4.5c0-7.3,0-14.5,0-21.8H70.7z"/>
	<path fill="#4692C9" d="M12.2,4.1c0,1-0.8,1.7-1.7,1.7H8.1c-1,0-1.7-0.8-1.7-1.7V1.7c0-1,0.8-1.7,1.7-1.7h2.4c1,0,1.7,0.8,1.7,1.7
		V4.1z"/>
	<path d="M6.4,10c0,1-0.8,1.7-1.7,1.7H2.2c-1,0-1.7-0.8-1.7-1.7V7.6c0-1,0.8-1.7,1.7-1.7h2.4c1,0,1.7,0.8,1.7,1.7V10z"/>
</g>
<g>
	<g>
		<path d="M102.3,22.7v5.6c0,0.4,0,0.8,0,1.2c0,0.5,0,0.9,0.1,1.2H100c0.1-0.4,0.1-0.8,0.1-1.2c0-0.4,0-0.8,0-1.2v-5.6h-5.6
			c-0.7,0-1.3,0-1.9,0c-0.6,0-1.3,0-1.9,0.1v-2c0.7,0.1,1.3,0.1,1.9,0.1c0.6,0,1.3,0,1.9,0h13.3c0.7,0,1.3,0,1.9,0s1.3,0,1.9-0.1v2
			c-0.7-0.1-1.3-0.1-1.9-0.1c-0.6,0-1.3,0-1.9,0H102.3z M106.7,10.9h-4.3c0.1,0.9,0.4,1.7,1,2.4s1.3,1.3,2.1,1.8
			c0.8,0.5,1.6,0.9,2.5,1.2c0.9,0.3,1.8,0.6,2.7,0.7c-0.3,0.3-0.5,0.6-0.8,0.8c-0.2,0.3-0.5,0.5-0.7,0.8c-0.7-0.2-1.3-0.4-2.1-0.6
			c-0.7-0.3-1.4-0.6-2.2-1c-0.8-0.4-1.5-0.9-2.2-1.5c-0.7-0.6-1.2-1.3-1.6-2.1c-0.4,0.7-0.8,1.2-1.4,1.8c-0.5,0.5-1.1,1-1.8,1.4
			c-0.7,0.5-1.5,0.9-2.4,1.2s-1.7,0.6-2.5,0.8c-0.2-0.2-0.4-0.5-0.7-0.8c-0.3-0.3-0.6-0.6-0.8-0.8c1.1-0.2,2.2-0.5,3.2-0.9
			c1-0.4,1.9-0.8,2.6-1.4c0.7-0.5,1.3-1.1,1.8-1.7c0.5-0.7,0.7-1.4,0.8-2.2h-4.3c-0.5,0-0.9,0-1.2,0s-0.8,0-1.2,0.1V9
			c0.4,0.1,0.8,0.1,1.2,0.1s0.8,0,1.2,0h11c0.4,0,0.8,0,1.2,0s0.8,0,1.2-0.1v2c-0.5-0.1-0.9-0.1-1.2-0.1S107.1,10.9,106.7,10.9z"/>
		<path d="M121.3,11.2v0.3c0,0.9,0.1,1.7,0.4,2.4c0.3,0.7,0.7,1.4,1.2,2c0.6,0.7,1.2,1.3,2,1.8c0.8,0.5,1.6,0.9,2.4,1.1
			c-0.3,0.3-0.5,0.5-0.8,0.8c-0.3,0.3-0.5,0.6-0.6,0.8c-0.5-0.2-1.1-0.5-1.6-0.8c-0.6-0.3-1.1-0.7-1.6-1.1c-0.5-0.4-1-0.8-1.4-1.3
			s-0.8-1-1.1-1.6c-0.2,0.6-0.5,1.1-0.8,1.6c-0.3,0.5-0.7,1-1.1,1.4c-0.5,0.5-1.1,1-1.7,1.4c-0.6,0.4-1.2,0.8-1.9,1.1
			c-0.2-0.2-0.5-0.4-0.8-0.7c-0.3-0.3-0.6-0.5-0.9-0.7c0.9-0.4,1.8-0.9,2.6-1.4c0.8-0.6,1.5-1.2,2.1-1.9c0.5-0.7,0.9-1.4,1.2-2.2
			c0.3-0.8,0.4-1.7,0.4-2.6v-0.4c0-0.5,0-0.8,0-1.1c0-0.3-0.1-0.7-0.1-1.1h2.5c-0.1,0.5-0.1,0.8-0.1,1.2
			C121.3,10.3,121.3,10.7,121.3,11.2z M132.2,28.5c0,0.4,0,0.8,0,1.2s0.1,0.8,0.1,1.2H130c0.1-0.4,0.1-0.7,0.1-1.2
			c0-0.4,0-0.8,0-1.2v-3.9h-10.3c-0.5,0-1,0-1.4,0c-0.4,0-0.9,0-1.4,0.1v-2c0.5,0.1,1,0.1,1.4,0.1s0.9,0,1.4,0h12.5
			c-0.1,0.3-0.1,0.6-0.1,0.9c0,0.2,0,0.5,0,0.8V28.5z M132.3,10.8v10.9h-2.1V10.8c0-0.4,0-0.8,0-1.3s-0.1-0.8-0.1-1.3h2.3
			c-0.1,0.4-0.1,0.9-0.1,1.3C132.3,10,132.3,10.4,132.3,10.8z"/>
		<path d="M142.9,24.7v-2.4c-1.3-0.1-2.3-0.5-3.1-1.2c-0.8-0.7-1.2-1.4-1.2-2.4c0-0.5,0.1-1,0.4-1.4s0.6-0.8,1.1-1.1
			c0.5-0.3,1-0.6,1.7-0.8c0.7-0.2,1.4-0.3,2.2-0.3c0.8,0,1.5,0.1,2.2,0.3c0.7,0.2,1.2,0.5,1.7,0.8c0.5,0.3,0.8,0.7,1.1,1.2
			c0.3,0.4,0.4,0.9,0.4,1.4c0,0.9-0.4,1.6-1.2,2.3c-0.8,0.6-1.8,1-3.1,1.2v2.4c1.1-0.1,2.3-0.1,3.6-0.2c1.3-0.1,2.5-0.2,3.5-0.3v1.8
			c-2.2,0.3-4.4,0.4-6.5,0.5c-2.1,0.1-4.3,0.1-6.7,0.1c-0.5,0-0.9,0-1.3,0c-0.4,0-0.8,0-1.3,0.1v-2c0.5,0.1,0.9,0.1,1.3,0.1
			c0.4,0,0.8,0,1.3,0L142.9,24.7z M148.3,14.1h-8.7c-0.4,0-0.7,0-1,0c-0.3,0-0.6,0-1,0.1v-1.9c0.4,0.1,0.7,0.1,1,0.1s0.6,0,1,0h8.7
			c0.4,0,0.7,0,1,0c0.3,0,0.6,0,1-0.1v1.9c-0.4,0-0.7-0.1-1-0.1C148.9,14.1,148.6,14.1,148.3,14.1z M145.6,10.4h-3.4
			c-0.2,0-0.3,0-0.4,0c-0.1,0-0.3,0-0.4,0c-0.1,0-0.3,0-0.4,0c-0.1,0-0.3,0-0.4,0V8.6c0.3,0,0.6,0.1,0.8,0.1c0.3,0,0.5,0,0.8,0h3.4
			c0.3,0,0.6,0,0.8,0s0.6,0,0.9-0.1v1.8c-0.3,0-0.6,0-0.9,0C146.1,10.4,145.9,10.4,145.6,10.4z M144,20.8c1,0,1.8-0.2,2.4-0.6
			c0.6-0.4,0.9-0.9,0.9-1.5c0-0.6-0.3-1.1-0.9-1.5c-0.6-0.4-1.4-0.6-2.4-0.6c-0.9,0-1.7,0.2-2.4,0.6c-0.6,0.4-1,0.9-1,1.5
			c0,0.6,0.3,1.1,1,1.5C142.2,20.6,143,20.8,144,20.8z M155.2,27.4c0,0.6,0,1.1,0,1.7c0,0.6,0,1.1,0.1,1.7h-2.3
			c0.1-0.6,0.1-1.1,0.1-1.7c0-0.6,0-1.1,0-1.7V11.7c0-0.6,0-1.1,0-1.7c0-0.6-0.1-1.1-0.1-1.7h2.3c-0.1,0.6-0.1,1.1-0.1,1.7
			s0,1.1,0,1.7V27.4z"/>
		<path d="M165.9,11.8v1.9c0,1.2,0.1,2.2,0.4,3.2c0.2,1,0.6,1.9,1.1,2.7c0.6,0.9,1.2,1.8,2,2.6c0.8,0.8,1.7,1.4,2.8,2.1
			c-0.3,0.2-0.6,0.5-0.9,0.8c-0.3,0.3-0.5,0.5-0.7,0.7c-0.6-0.4-1.1-0.8-1.7-1.3c-0.5-0.5-1.1-1-1.5-1.5c-0.6-0.6-1.1-1.3-1.5-2
			c-0.4-0.7-0.8-1.4-1.1-2.2c-0.2,0.7-0.5,1.4-0.9,2.1c-0.4,0.7-0.9,1.4-1.4,2.1c-0.6,0.7-1.1,1.3-1.7,1.9c-0.6,0.6-1.2,1.1-1.8,1.4
			c-0.2-0.2-0.5-0.4-0.9-0.7c-0.4-0.3-0.7-0.5-1-0.7c1.1-0.7,2-1.4,2.8-2.2c0.8-0.8,1.5-1.7,2.1-2.7c0.5-1,0.9-2,1.2-3.1
			c0.3-1.1,0.4-2.3,0.4-3.5v-1.5c0-0.5,0-0.9,0-1.3c0-0.4-0.1-0.8-0.1-1.3h2.4c-0.1,0.5-0.1,0.9-0.1,1.3
			C165.9,11,165.9,11.4,165.9,11.8z M176.1,17h1.4c0.3,0,0.6,0,1,0c0.3,0,0.7,0,1-0.1V19c-0.3,0-0.6-0.1-1-0.1s-0.7,0-0.9,0h-1.4
			v8.5c0,0.6,0,1.1,0,1.7c0,0.6,0,1.1,0.1,1.7h-2.4c0.1-0.6,0.1-1.1,0.1-1.7c0-0.6,0-1.1,0-1.7V11.7c0-0.6,0-1.1,0-1.7
			c0-0.6-0.1-1.1-0.1-1.7h2.4c-0.1,0.6-0.1,1.1-0.1,1.7c0,0.6,0,1.1,0,1.7V17z"/>
		<path d="M187.6,17.5c0-1.5,0.2-2.8,0.5-3.8s0.8-2,1.3-2.7c0.5-0.7,1.1-1.2,1.8-1.5c0.7-0.3,1.4-0.5,2-0.5c0.7,0,1.4,0.2,2.1,0.5
			c0.7,0.3,1.3,0.8,1.8,1.5c0.5,0.7,0.9,1.6,1.2,2.7c0.3,1.1,0.5,2.3,0.5,3.8s-0.2,2.7-0.5,3.8c-0.3,1.1-0.7,2-1.2,2.7
			c-0.5,0.7-1.1,1.2-1.8,1.6c-0.7,0.3-1.4,0.5-2.1,0.5c-0.7,0-1.4-0.2-2.1-0.5c-0.7-0.3-1.3-0.9-1.8-1.6c-0.5-0.7-1-1.6-1.3-2.6
			C187.8,20.2,187.6,18.9,187.6,17.5z M189.8,17.4c0,0.9,0.1,1.7,0.2,2.5c0.2,0.8,0.4,1.5,0.7,2.1c0.3,0.6,0.7,1.1,1.1,1.5
			c0.4,0.4,0.9,0.5,1.5,0.5c0.6,0,1-0.2,1.5-0.5c0.4-0.4,0.8-0.9,1.1-1.5c0.3-0.6,0.5-1.3,0.7-2.1c0.2-0.8,0.2-1.7,0.2-2.5
			c0-0.9-0.1-1.7-0.2-2.5c-0.2-0.8-0.4-1.5-0.7-2.1c-0.3-0.6-0.6-1.1-1.1-1.5c-0.4-0.4-0.9-0.6-1.5-0.6c-0.6,0-1.1,0.2-1.5,0.6
			s-0.8,0.9-1.1,1.5c-0.3,0.6-0.5,1.3-0.7,2.1S189.8,16.6,189.8,17.4z M204.9,16.2h1.5c0.3,0,0.6,0,1,0c0.3,0,0.7,0,1-0.1v2.1
			c-0.3,0-0.6-0.1-1-0.1c-0.3,0-0.7,0-0.9,0h-1.5v9.3c0,0.6,0,1.1,0,1.7c0,0.6,0,1.1,0.1,1.7h-2.3c0.1-0.6,0.1-1.1,0.1-1.7
			c0-0.6,0-1.1,0-1.7V11.7c0-0.6,0-1.1,0-1.7c0-0.6-0.1-1.1-0.1-1.7h2.3c-0.1,0.6-0.1,1.1-0.1,1.7s0,1.1,0,1.7V16.2z"/>
		<path d="M210.2,14.2c0-0.8,0.1-1.5,0.4-2.2s0.7-1.3,1.2-1.8c0.5-0.5,1.1-0.9,1.9-1.2c0.7-0.3,1.5-0.5,2.4-0.5
			c0.9,0,1.6,0.2,2.4,0.5c0.7,0.3,1.3,0.7,1.9,1.2c0.5,0.5,0.9,1.1,1.2,1.8c0.3,0.7,0.4,1.4,0.4,2.2c0,0.8-0.1,1.5-0.4,2.2
			c-0.3,0.7-0.7,1.3-1.2,1.8c-0.5,0.5-1.2,0.9-1.9,1.2c-0.7,0.3-1.5,0.4-2.4,0.4c-0.9,0-1.7-0.1-2.4-0.4s-1.3-0.7-1.9-1.2
			c-0.5-0.5-0.9-1.1-1.2-1.8C210.3,15.7,210.2,15,210.2,14.2z M216.1,18c1.2,0,2.1-0.4,2.8-1.1c0.6-0.8,1-1.7,1-2.7s-0.3-2-1-2.7
			c-0.6-0.7-1.6-1.1-2.8-1.1s-2.1,0.4-2.8,1.1c-0.7,0.7-1,1.7-1,2.7s0.3,2,1,2.7S214.9,18,216.1,18z M228.3,30.5h-14.9v-6.1
			c0-0.3,0-0.7,0-1.1c0-0.4-0.1-0.7-0.1-1.1h15.1c-0.1,0.4-0.1,0.7-0.1,1.1c0,0.3,0,0.7,0,1.1V30.5z M226.3,28.7v-4.8h-10.7v4.8
			H226.3z M228.4,10.8V21h-2.1V10.8c0-0.4,0-0.8,0-1.3c0-0.4-0.1-0.8-0.1-1.3h2.3c-0.1,0.4-0.1,0.9-0.1,1.3
			C228.4,10,228.4,10.4,228.4,10.8z"/>
		<path d="M247.1,22.9v5.4c0,0.4,0,0.8,0,1.2c0,0.4,0,0.9,0.1,1.3h-2.3c0-0.2,0-0.4,0-0.6c0-0.2,0-0.4,0-0.7c0-0.2,0-0.4,0-0.6
			s0-0.4,0-0.6v-5.3h-5.6v5.2c0,0.4,0,0.8,0,1.2c0,0.4,0,0.9,0.1,1.3h-2.3c0-0.2,0-0.4,0-0.6c0-0.2,0-0.4,0-0.7c0-0.2,0-0.4,0-0.6
			c0-0.2,0-0.4,0-0.6v-5.1h-1.8c-0.7,0-1.3,0-1.9,0c-0.6,0-1.3,0-1.9,0.1v-2c0.7,0.1,1.3,0.1,1.9,0.1c0.6,0,1.3,0,1.9,0h13.3
			c0.7,0,1.3,0,1.9,0c0.6,0,1.3,0,1.9-0.1v2c-0.7,0-1.3-0.1-1.9-0.1c-0.6,0-1.3,0-1.9,0H247.1z M242.1,18.8c-1.3,0-2.4-0.1-3.4-0.4
			c-1-0.3-1.9-0.6-2.6-1.1c-0.7-0.5-1.2-1-1.6-1.6c-0.4-0.6-0.6-1.3-0.6-2.1c0-0.7,0.2-1.4,0.6-2c0.4-0.6,0.9-1.2,1.6-1.7
			c0.7-0.5,1.5-0.8,2.5-1.1c1-0.3,2.2-0.4,3.4-0.4c1.3,0,2.4,0.1,3.4,0.4c1,0.3,1.9,0.6,2.6,1.1c0.7,0.5,1.2,1,1.6,1.6
			c0.4,0.6,0.6,1.3,0.6,2c0,0.7-0.2,1.4-0.6,2c-0.4,0.6-0.9,1.2-1.6,1.6c-0.7,0.5-1.6,0.8-2.6,1.1C244.5,18.7,243.4,18.8,242.1,18.8
			z M236.2,13.7c0,0.5,0.1,1,0.4,1.4c0.3,0.4,0.7,0.8,1.2,1c0.5,0.3,1.1,0.5,1.9,0.7c0.7,0.2,1.5,0.2,2.4,0.2c0.8,0,1.6-0.1,2.3-0.2
			c0.7-0.1,1.3-0.4,1.9-0.6c0.5-0.3,0.9-0.6,1.2-1s0.5-0.9,0.5-1.4c0-0.5-0.2-1-0.5-1.4s-0.7-0.8-1.2-1.1c-0.5-0.3-1.1-0.5-1.9-0.7
			c-0.7-0.2-1.5-0.2-2.3-0.2c-0.9,0-1.6,0.1-2.4,0.2c-0.7,0.2-1.4,0.4-1.9,0.7c-0.5,0.3-0.9,0.6-1.2,1
			C236.4,12.7,236.2,13.2,236.2,13.7z"/>
	</g>
</g>
<g>
	<g>
		<path d="M5.6,165.6v2.7c0,0.2,0,0.4,0,0.6s0,0.4,0,0.6H4.5c0-0.2,0-0.4,0-0.6c0-0.2,0-0.4,0-0.6v-2.7H1.9c-0.3,0-0.6,0-0.9,0
			s-0.6,0-0.9,0v-0.9c0.3,0,0.6,0,0.9,0s0.6,0,0.9,0h6.3c0.3,0,0.6,0,0.9,0s0.6,0,0.9,0v0.9c-0.3,0-0.6,0-0.9,0s-0.6,0-0.9,0H5.6z
			 M7.7,160H5.6c0,0.4,0.2,0.8,0.5,1.2c0.3,0.3,0.6,0.6,1,0.9c0.4,0.2,0.8,0.4,1.2,0.6s0.9,0.3,1.3,0.3c-0.1,0.1-0.3,0.3-0.4,0.4
			c-0.1,0.1-0.2,0.2-0.3,0.4c-0.3-0.1-0.6-0.2-1-0.3s-0.7-0.3-1-0.5c-0.4-0.2-0.7-0.4-1-0.7c-0.3-0.3-0.6-0.6-0.8-1
			c-0.2,0.3-0.4,0.6-0.6,0.8c-0.3,0.2-0.5,0.5-0.8,0.7c-0.4,0.2-0.7,0.4-1.1,0.6s-0.8,0.3-1.2,0.4c-0.1-0.1-0.2-0.2-0.4-0.4
			c-0.1-0.1-0.3-0.3-0.4-0.4c0.5-0.1,1-0.3,1.5-0.4s0.9-0.4,1.2-0.7c0.4-0.2,0.6-0.5,0.9-0.8c0.2-0.3,0.4-0.7,0.4-1H2.4
			c-0.2,0-0.4,0-0.6,0c-0.2,0-0.4,0-0.6,0v-0.9c0.2,0,0.4,0,0.6,0c0.2,0,0.4,0,0.6,0h5.2c0.2,0,0.4,0,0.6,0c0.2,0,0.4,0,0.6,0v0.9
			c-0.2,0-0.4,0-0.6,0C8.1,160,7.9,160,7.7,160z"/>
		<path d="M14.6,160.2v0.2c0,0.4,0.1,0.8,0.2,1.1c0.1,0.3,0.3,0.7,0.6,0.9c0.3,0.3,0.6,0.6,0.9,0.8c0.4,0.2,0.7,0.4,1.1,0.5
			c-0.1,0.1-0.2,0.2-0.4,0.4c-0.1,0.1-0.2,0.3-0.3,0.4c-0.2-0.1-0.5-0.2-0.8-0.4s-0.5-0.3-0.8-0.5c-0.2-0.2-0.5-0.4-0.7-0.6
			c-0.2-0.2-0.4-0.5-0.5-0.7c-0.1,0.3-0.2,0.5-0.4,0.8c-0.2,0.2-0.3,0.5-0.5,0.7c-0.3,0.3-0.5,0.5-0.8,0.7c-0.3,0.2-0.6,0.4-0.9,0.5
			c-0.1-0.1-0.2-0.2-0.4-0.3c-0.2-0.1-0.3-0.2-0.4-0.3c0.4-0.2,0.8-0.4,1.2-0.7s0.7-0.6,1-0.9c0.2-0.3,0.4-0.7,0.6-1
			s0.2-0.8,0.2-1.2v-0.2c0-0.2,0-0.4,0-0.5c0-0.1,0-0.3,0-0.5h1.2c0,0.2,0,0.4-0.1,0.5C14.6,159.8,14.6,159.9,14.6,160.2z
			 M19.8,168.4c0,0.2,0,0.4,0,0.6c0,0.2,0,0.4,0,0.5h-1.1c0-0.2,0-0.4,0-0.5c0-0.2,0-0.4,0-0.6v-1.9h-4.9c-0.2,0-0.5,0-0.7,0
			c-0.2,0-0.4,0-0.7,0v-0.9c0.2,0,0.5,0,0.7,0c0.2,0,0.4,0,0.7,0h5.9c0,0.2,0,0.3,0,0.4c0,0.1,0,0.2,0,0.4V168.4z M19.8,160v5.2h-1
			V160c0-0.2,0-0.4,0-0.6s0-0.4,0-0.6h1.1c0,0.2,0,0.4,0,0.6S19.8,159.8,19.8,160z"/>
		<path d="M24.9,166.6v-1.1c-0.6-0.1-1.1-0.3-1.5-0.6s-0.6-0.7-0.6-1.1c0-0.2,0.1-0.5,0.2-0.7c0.1-0.2,0.3-0.4,0.5-0.5
			c0.2-0.2,0.5-0.3,0.8-0.4c0.3-0.1,0.7-0.1,1-0.1c0.4,0,0.7,0,1,0.1c0.3,0.1,0.6,0.2,0.8,0.4c0.2,0.2,0.4,0.3,0.5,0.5
			s0.2,0.4,0.2,0.7c0,0.4-0.2,0.8-0.6,1.1c-0.4,0.3-0.9,0.5-1.5,0.6v1.1c0.5,0,1.1-0.1,1.7-0.1s1.2-0.1,1.7-0.1v0.8
			c-1.1,0.1-2.1,0.2-3.1,0.2c-1,0-2,0-3.2,0c-0.2,0-0.4,0-0.6,0c-0.2,0-0.4,0-0.6,0v-0.9c0.2,0,0.4,0,0.6,0s0.4,0,0.6,0L24.9,166.6z
			 M27.4,161.5h-4.1c-0.2,0-0.3,0-0.5,0c-0.1,0-0.3,0-0.5,0v-0.9c0.2,0,0.3,0,0.5,0c0.1,0,0.3,0,0.5,0h4.1c0.2,0,0.3,0,0.5,0
			c0.1,0,0.3,0,0.5,0v0.9c-0.2,0-0.3,0-0.5,0C27.7,161.5,27.5,161.5,27.4,161.5z M26.1,159.8h-1.6c-0.1,0-0.1,0-0.2,0
			c-0.1,0-0.1,0-0.2,0c-0.1,0-0.1,0-0.2,0c-0.1,0-0.1,0-0.2,0V159c0.1,0,0.3,0,0.4,0c0.1,0,0.3,0,0.4,0h1.6c0.1,0,0.3,0,0.4,0
			s0.3,0,0.4,0v0.9c-0.1,0-0.3,0-0.4,0C26.4,159.8,26.2,159.8,26.1,159.8z M25.3,164.7c0.5,0,0.8-0.1,1.1-0.3
			c0.3-0.2,0.4-0.4,0.4-0.7c0-0.3-0.1-0.5-0.4-0.7c-0.3-0.2-0.7-0.3-1.1-0.3c-0.4,0-0.8,0.1-1.1,0.3c-0.3,0.2-0.5,0.4-0.5,0.7
			c0,0.3,0.2,0.5,0.5,0.7C24.5,164.6,24.9,164.7,25.3,164.7z M30.7,167.8c0,0.3,0,0.5,0,0.8s0,0.5,0,0.8h-1.1c0-0.3,0-0.5,0-0.8
			c0-0.3,0-0.5,0-0.8v-7.4c0-0.3,0-0.5,0-0.8c0-0.3,0-0.5,0-0.8h1.1c0,0.3,0,0.5,0,0.8s0,0.5,0,0.8V167.8z"/>
		<path d="M35.7,160.5v0.9c0,0.5,0.1,1.1,0.2,1.5c0.1,0.5,0.3,0.9,0.5,1.3c0.3,0.4,0.6,0.8,1,1.2c0.4,0.4,0.8,0.7,1.3,1
			c-0.1,0.1-0.3,0.2-0.4,0.4c-0.1,0.1-0.3,0.3-0.4,0.3c-0.3-0.2-0.5-0.4-0.8-0.6c-0.3-0.2-0.5-0.5-0.7-0.7c-0.3-0.3-0.5-0.6-0.7-0.9
			c-0.2-0.3-0.4-0.7-0.5-1c-0.1,0.3-0.2,0.6-0.4,1c-0.2,0.3-0.4,0.7-0.6,1c-0.3,0.3-0.5,0.6-0.8,0.9s-0.6,0.5-0.8,0.7
			c-0.1-0.1-0.2-0.2-0.4-0.3c-0.2-0.1-0.3-0.2-0.5-0.3c0.5-0.3,0.9-0.7,1.3-1.1c0.4-0.4,0.7-0.8,1-1.3c0.3-0.5,0.4-0.9,0.6-1.5
			s0.2-1.1,0.2-1.7v-0.7c0-0.2,0-0.4,0-0.6c0-0.2,0-0.4,0-0.6h1.2c0,0.2,0,0.4,0,0.6C35.7,160.1,35.7,160.3,35.7,160.5z M40.6,162.9
			h0.7c0.1,0,0.3,0,0.5,0c0.2,0,0.3,0,0.5,0v1c-0.1,0-0.3,0-0.5,0s-0.3,0-0.4,0h-0.7v4c0,0.3,0,0.5,0,0.8s0,0.5,0,0.8h-1.1
			c0-0.3,0-0.5,0-0.8s0-0.5,0-0.8v-7.4c0-0.3,0-0.5,0-0.8s0-0.5,0-0.8h1.1c0,0.3,0,0.5,0,0.8s0,0.5,0,0.8V162.9z"/>
		<path d="M46,163.1c0-0.7,0.1-1.3,0.2-1.8c0.2-0.5,0.4-0.9,0.6-1.3c0.2-0.3,0.5-0.6,0.8-0.7s0.6-0.2,1-0.2c0.3,0,0.7,0.1,1,0.2
			s0.6,0.4,0.9,0.7c0.2,0.3,0.4,0.8,0.6,1.3c0.2,0.5,0.2,1.1,0.2,1.8s-0.1,1.3-0.2,1.8c-0.2,0.5-0.3,0.9-0.6,1.3
			c-0.2,0.3-0.5,0.6-0.9,0.7s-0.7,0.2-1,0.2c-0.3,0-0.7-0.1-1-0.2s-0.6-0.4-0.8-0.7c-0.3-0.3-0.5-0.7-0.6-1.3
			C46.1,164.4,46,163.8,46,163.1z M47,163.1c0,0.4,0,0.8,0.1,1.2c0.1,0.4,0.2,0.7,0.3,1c0.1,0.3,0.3,0.5,0.5,0.7
			c0.2,0.2,0.4,0.3,0.7,0.3c0.3,0,0.5-0.1,0.7-0.3c0.2-0.2,0.4-0.4,0.5-0.7c0.1-0.3,0.3-0.6,0.3-1s0.1-0.8,0.1-1.2
			c0-0.4,0-0.8-0.1-1.2s-0.2-0.7-0.3-1c-0.1-0.3-0.3-0.5-0.5-0.7c-0.2-0.2-0.4-0.3-0.7-0.3c-0.3,0-0.5,0.1-0.7,0.3
			c-0.2,0.2-0.4,0.4-0.5,0.7c-0.1,0.3-0.3,0.6-0.3,1C47.1,162.3,47,162.7,47,163.1z M54.2,162.5h0.7c0.1,0,0.3,0,0.5,0
			c0.2,0,0.3,0,0.5,0v1c-0.1,0-0.3,0-0.5,0s-0.3,0-0.4,0h-0.7v4.4c0,0.3,0,0.5,0,0.8s0,0.5,0,0.8h-1.1c0-0.3,0-0.5,0-0.8
			c0-0.3,0-0.5,0-0.8v-7.4c0-0.3,0-0.5,0-0.8c0-0.3,0-0.5,0-0.8h1.1c0,0.3,0,0.5,0,0.8s0,0.5,0,0.8V162.5z"/>
		<path d="M56.7,161.6c0-0.4,0.1-0.7,0.2-1s0.3-0.6,0.6-0.9c0.2-0.2,0.5-0.4,0.9-0.6c0.3-0.1,0.7-0.2,1.1-0.2c0.4,0,0.8,0.1,1.1,0.2
			c0.3,0.1,0.6,0.3,0.9,0.6c0.2,0.2,0.4,0.5,0.6,0.9s0.2,0.7,0.2,1c0,0.4-0.1,0.7-0.2,1s-0.3,0.6-0.6,0.9c-0.3,0.2-0.6,0.4-0.9,0.6
			c-0.3,0.1-0.7,0.2-1.1,0.2c-0.4,0-0.8-0.1-1.1-0.2c-0.3-0.1-0.6-0.3-0.9-0.6c-0.2-0.2-0.4-0.5-0.6-0.9S56.7,162,56.7,161.6z
			 M59.5,163.4c0.6,0,1-0.2,1.3-0.5c0.3-0.4,0.5-0.8,0.5-1.3c0-0.5-0.2-0.9-0.5-1.3c-0.3-0.4-0.7-0.5-1.3-0.5c-0.6,0-1,0.2-1.3,0.5
			c-0.3,0.4-0.5,0.8-0.5,1.3c0,0.5,0.2,0.9,0.5,1.3C58.5,163.2,58.9,163.4,59.5,163.4z M65.3,169.3h-7v-2.9c0-0.2,0-0.3,0-0.5
			c0-0.2,0-0.3-0.1-0.5h7.2c0,0.2,0,0.4,0,0.5s0,0.3,0,0.5V169.3z M64.3,168.5v-2.3h-5.1v2.3H64.3z M65.3,160v4.8h-1V160
			c0-0.2,0-0.4,0-0.6s0-0.4,0-0.6h1.1c0,0.2,0,0.4,0,0.6C65.3,159.6,65.3,159.8,65.3,160z"/>
		<path d="M74.2,165.7v2.6c0,0.2,0,0.4,0,0.6s0,0.4,0,0.6h-1.1c0-0.1,0-0.2,0-0.3c0-0.1,0-0.2,0-0.3c0-0.1,0-0.2,0-0.3s0-0.2,0-0.3
			v-2.5h-2.6v2.5c0,0.2,0,0.4,0,0.6s0,0.4,0,0.6h-1.1c0-0.1,0-0.2,0-0.3c0-0.1,0-0.2,0-0.3c0-0.1,0-0.2,0-0.3s0-0.2,0-0.3v-2.4h-0.8
			c-0.3,0-0.6,0-0.9,0s-0.6,0-0.9,0v-1c0.3,0,0.6,0,0.9,0s0.6,0,0.9,0H75c0.3,0,0.6,0,0.9,0s0.6,0,0.9,0v1c-0.3,0-0.6,0-0.9,0
			s-0.6,0-0.9,0H74.2z M71.8,163.8c-0.6,0-1.1-0.1-1.6-0.2s-0.9-0.3-1.2-0.5s-0.6-0.5-0.8-0.8s-0.3-0.6-0.3-1c0-0.3,0.1-0.7,0.3-1
			c0.2-0.3,0.4-0.6,0.8-0.8c0.3-0.2,0.7-0.4,1.2-0.5s1-0.2,1.6-0.2c0.6,0,1.1,0.1,1.6,0.2s0.9,0.3,1.2,0.5c0.3,0.2,0.6,0.5,0.8,0.8
			c0.2,0.3,0.3,0.6,0.3,1c0,0.3-0.1,0.7-0.3,1c-0.2,0.3-0.4,0.6-0.8,0.8c-0.3,0.2-0.7,0.4-1.2,0.5S72.5,163.8,71.8,163.8z M69,161.3
			c0,0.2,0.1,0.5,0.2,0.7c0.1,0.2,0.3,0.4,0.6,0.5c0.2,0.1,0.5,0.2,0.9,0.3s0.7,0.1,1.1,0.1c0.4,0,0.8,0,1.1-0.1s0.6-0.2,0.9-0.3
			c0.2-0.1,0.4-0.3,0.6-0.5c0.1-0.2,0.2-0.4,0.2-0.6c0-0.2-0.1-0.5-0.2-0.7c-0.1-0.2-0.3-0.4-0.6-0.5c-0.2-0.1-0.5-0.2-0.9-0.3
			c-0.3-0.1-0.7-0.1-1.1-0.1c-0.4,0-0.8,0-1.1,0.1c-0.3,0.1-0.6,0.2-0.9,0.3c-0.2,0.1-0.4,0.3-0.6,0.5C69.1,160.9,69,161.1,69,161.3
			z"/>
	</g>
</g>
<g>
	<path fill="#707070" d="M29.8,79c0,1.1-0.9,2-2,2h-1.9c-1.1,0-2-0.9-2-2v-1.9c0-1.1,0.9-2,2-2h1.9c1.1,0,2,0.9,2,2V79z"/>
	<rect x="23.9" y="77" fill="#707070" width="5.9" height="14.6"/>
	<path d="M18.1,91.6c0-5.1,0-10.1,0-15.2c0-1.2,0-2.5,0-3.7v-1.5h1.5c0.5,0,0.9,0,1.4,0c1,0,2,0,2.9,0c2,0,3.9,0,5.9,0
		c0.8,0,1.5,0,2.3,0c0.7,0,1.4,0,2.1,0h1.5v1.5c0,1.2,0,2.5,0,3.7c0,5.1,0,10.1,0,15.2h5.9c0-7.3,0-14.5,0-21.8c0-2.5-2-4.5-4.5-4.5
		c-0.4,0-0.9,0-1.3,0c-5.8,0-11.7,0-17.5,0c-0.4,0-0.9,0-1.3,0c-2.5,0-4.5,2-4.5,4.5c0,7.3,0,14.5,0,21.8H18.1z"/>
	<rect x="0.5" y="68" width="5.8" height="23.6"/>
	<path fill="#4692C9" d="M70.7,65.3c0,3.8,0,7.6,0,11.5c0,2.5,0,5,0,7.5v1.5h-1.5c-0.9,0-1.8,0-2.8,0c-2.6,0-5.2,0-7.8,0
		c-1.3,0-2.7,0-4,0h-1.5v-1.5c0-2.5,0-5,0-7.5c0-3.8,0-7.6,0-11.5h-5.9c0,7.3,0,14.5,0,21.8c0,2.5,2,4.5,4.5,4.5c0.4,0,0.9,0,1.3,0
		c5.9,0,11.7,0,17.6,0c0.4,0,0.9,0,1.3,0c2.5,0,4.5-2,4.5-4.5c0-7.3,0-14.5,0-21.8H70.7z"/>
	<path fill="#4692C9" d="M12.2,63.3c0,1-0.8,1.7-1.7,1.7H8.1c-1,0-1.7-0.8-1.7-1.7v-2.4c0-1,0.8-1.7,1.7-1.7h2.4
		c1,0,1.7,0.8,1.7,1.7V63.3z"/>
	<path d="M6.4,69.2c0,1-0.8,1.7-1.7,1.7H2.2c-1,0-1.7-0.8-1.7-1.7v-2.4c0-1,0.8-1.7,1.7-1.7h2.4c1,0,1.7,0.8,1.7,1.7V69.2z"/>
</g>
<g>
	<path fill="#707070" d="M29.8,139.3c0,1.1-0.9,2-2,2h-1.9c-1.1,0-2-0.9-2-2v-1.9c0-1.1,0.9-2,2-2h1.9c1.1,0,2,0.9,2,2V139.3z"/>
	<rect x="23.9" y="137.3" fill="#707070" width="5.9" height="14.6"/>
	<path d="M18.1,151.8c0-5.1,0-10.1,0-15.2c0-1.2,0-2.5,0-3.7v-1.5h1.5c0.5,0,0.9,0,1.4,0c1,0,2,0,2.9,0c2,0,3.9,0,5.9,0
		c0.8,0,1.5,0,2.3,0c0.7,0,1.4,0,2.1,0h1.5v1.5c0,1.2,0,2.5,0,3.7c0,5.1,0,10.1,0,15.2h5.9c0-7.3,0-14.5,0-21.8c0-2.5-2-4.5-4.5-4.5
		c-0.4,0-0.9,0-1.3,0c-5.8,0-11.7,0-17.5,0c-0.4,0-0.9,0-1.3,0c-2.5,0-4.5,2-4.5,4.5c0,7.3,0,14.5,0,21.8H18.1z"/>
	<rect x="0.5" y="128.2" width="5.8" height="23.6"/>
	<path fill="#4692C9" d="M70.7,125.5c0,3.8,0,7.6,0,11.5c0,2.5,0,5,0,7.5v1.5h-1.5c-0.9,0-1.8,0-2.8,0c-2.6,0-5.2,0-7.8,0
		c-1.3,0-2.7,0-4,0h-1.5v-1.5c0-2.5,0-5,0-7.5c0-3.8,0-7.6,0-11.5h-5.9c0,7.3,0,14.5,0,21.8c0,2.5,2,4.5,4.5,4.5c0.4,0,0.9,0,1.3,0
		c5.9,0,11.7,0,17.6,0c0.4,0,0.9,0,1.3,0c2.5,0,4.5-2,4.5-4.5c0-7.3,0-14.5,0-21.8H70.7z"/>
	<path fill="#4692C9" d="M12.2,123.6c0,1-0.8,1.7-1.7,1.7H8.1c-1,0-1.7-0.8-1.7-1.7v-2.4c0-1,0.8-1.7,1.7-1.7h2.4
		c1,0,1.7,0.8,1.7,1.7V123.6z"/>
	<path d="M6.4,129.4c0,1-0.8,1.7-1.7,1.7H2.2c-1,0-1.7-0.8-1.7-1.7V127c0-1,0.8-1.7,1.7-1.7h2.4c1,0,1.7,0.8,1.7,1.7V129.4z"/>
</g>
<g>
	<g>
		<path d="M97.5,89.9l-0.5,0.8c-1-0.4-1.9-1-2.6-1.8S93,87.1,92.6,86c-0.5-1.1-0.8-2.3-1-3.6s-0.3-2.8-0.3-4.3
			c0-1.4,0.1-2.7,0.3-3.9c0.2-1.2,0.6-2.3,1-3.3c0.5-1,1-1.8,1.8-2.6c0.7-0.8,1.6-1.4,2.6-2l0.5,0.8c-0.8,0.5-1.5,1.2-2.1,2
			c-0.5,0.8-1,1.6-1.3,2.6c-0.4,1-0.6,2-0.7,3c-0.1,1.1-0.2,2.2-0.2,3.3c0,1.3,0.1,2.6,0.2,3.8c0.1,1.2,0.4,2.3,0.7,3.3
			c0.3,1,0.8,1.9,1.3,2.8C95.9,88.7,96.6,89.4,97.5,89.9z"/>
		<path d="M110.3,81.9v5.6c0,0.4,0,0.8,0,1.2c0,0.5,0,0.9,0.1,1.2h-2.4c0.1-0.4,0.1-0.8,0.1-1.2c0-0.4,0-0.8,0-1.2v-5.6h-5.6
			c-0.7,0-1.3,0-1.9,0c-0.6,0-1.3,0-1.9,0.1v-2c0.7,0.1,1.3,0.1,1.9,0.1c0.6,0,1.3,0,1.9,0h13.3c0.7,0,1.3,0,1.9,0s1.3,0,1.9-0.1v2
			c-0.7-0.1-1.3-0.1-1.9-0.1c-0.6,0-1.3,0-1.9,0H110.3z M114.7,70.1h-4.3c0.1,0.9,0.4,1.7,1,2.4s1.3,1.3,2.1,1.8
			c0.8,0.5,1.6,0.9,2.5,1.2c0.9,0.3,1.8,0.6,2.7,0.7c-0.3,0.3-0.5,0.6-0.8,0.8c-0.2,0.3-0.5,0.5-0.7,0.8c-0.7-0.2-1.3-0.4-2.1-0.6
			c-0.7-0.3-1.4-0.6-2.2-1c-0.8-0.4-1.5-0.9-2.2-1.5c-0.7-0.6-1.2-1.3-1.6-2.1c-0.4,0.7-0.8,1.2-1.4,1.8c-0.5,0.5-1.1,1-1.8,1.4
			c-0.7,0.5-1.5,0.9-2.4,1.2s-1.7,0.6-2.5,0.8c-0.2-0.2-0.4-0.5-0.7-0.8c-0.3-0.3-0.6-0.6-0.8-0.8c1.1-0.2,2.2-0.5,3.2-0.9
			s1.9-0.8,2.6-1.4c0.7-0.5,1.3-1.1,1.8-1.7c0.5-0.7,0.7-1.4,0.8-2.2h-4.3c-0.5,0-0.9,0-1.2,0s-0.8,0-1.2,0.1v-2
			c0.4,0.1,0.8,0.1,1.2,0.1s0.8,0,1.2,0h11c0.4,0,0.8,0,1.2,0s0.8,0,1.2-0.1v2c-0.5-0.1-0.9-0.1-1.2-0.1S115.1,70.1,114.7,70.1z"/>
		<path d="M120.8,89.9c0.9-0.5,1.6-1.2,2.1-2c0.5-0.8,1-1.7,1.3-2.8c0.3-1,0.5-2.1,0.7-3.3c0.1-1.2,0.2-2.5,0.2-3.8
			c0-1.1-0.1-2.2-0.2-3.3c-0.1-1.1-0.4-2.1-0.7-3c-0.3-0.9-0.8-1.8-1.3-2.6c-0.6-0.8-1.2-1.4-2-2l0.5-0.8c1,0.6,1.8,1.2,2.5,2
			c0.7,0.8,1.3,1.6,1.8,2.6c0.5,1,0.8,2.1,1,3.3c0.2,1.2,0.3,2.5,0.3,3.9c0,1.6-0.1,3-0.3,4.3s-0.5,2.5-1,3.6c-0.5,1.1-1,2-1.8,2.8
			c-0.7,0.8-1.6,1.4-2.6,1.8L120.8,89.9z"/>
		<path d="M136.4,76.7c0-1.5,0.2-2.8,0.5-3.8s0.8-2,1.3-2.7c0.5-0.7,1.1-1.2,1.8-1.5c0.7-0.3,1.4-0.5,2-0.5c0.7,0,1.4,0.2,2.1,0.5
			c0.7,0.3,1.3,0.8,1.8,1.5c0.5,0.7,0.9,1.6,1.2,2.7c0.3,1.1,0.5,2.3,0.5,3.8s-0.2,2.7-0.5,3.8c-0.3,1.1-0.7,2-1.2,2.7
			c-0.5,0.7-1.1,1.2-1.8,1.6c-0.7,0.3-1.4,0.5-2.1,0.5c-0.7,0-1.4-0.2-2.1-0.5c-0.7-0.3-1.3-0.9-1.8-1.6c-0.5-0.7-1-1.6-1.3-2.6
			C136.5,79.4,136.4,78.1,136.4,76.7z M138.5,76.6c0,0.9,0.1,1.7,0.2,2.5c0.2,0.8,0.4,1.5,0.7,2.1c0.3,0.6,0.7,1.1,1.1,1.5
			c0.4,0.4,0.9,0.5,1.5,0.5c0.6,0,1-0.2,1.5-0.5c0.4-0.4,0.8-0.9,1.1-1.5c0.3-0.6,0.5-1.3,0.7-2.1c0.2-0.8,0.2-1.7,0.2-2.5
			c0-0.9-0.1-1.7-0.2-2.5c-0.2-0.8-0.4-1.5-0.7-2.1c-0.3-0.6-0.6-1.1-1.1-1.5c-0.4-0.4-0.9-0.6-1.5-0.6c-0.6,0-1.1,0.2-1.5,0.6
			s-0.8,0.9-1.1,1.5c-0.3,0.6-0.5,1.3-0.7,2.1S138.5,75.8,138.5,76.6z M153.6,75.4h1.5c0.3,0,0.6,0,1,0c0.3,0,0.7,0,1-0.1v2.1
			c-0.3,0-0.6-0.1-1-0.1c-0.3,0-0.7,0-0.9,0h-1.5v9.3c0,0.6,0,1.1,0,1.7c0,0.6,0,1.1,0.1,1.7h-2.3c0.1-0.6,0.1-1.1,0.1-1.7
			c0-0.6,0-1.1,0-1.7V70.9c0-0.6,0-1.1,0-1.7c0-0.6-0.1-1.1-0.1-1.7h2.3c-0.1,0.6-0.1,1.1-0.1,1.7s0,1.1,0,1.7V75.4z"/>
		<path d="M158.9,73.4c0-0.8,0.1-1.5,0.4-2.2s0.7-1.3,1.2-1.8c0.5-0.5,1.1-0.9,1.9-1.2c0.7-0.3,1.5-0.5,2.4-0.5
			c0.9,0,1.6,0.2,2.4,0.5c0.7,0.3,1.3,0.7,1.9,1.2c0.5,0.5,0.9,1.1,1.2,1.8c0.3,0.7,0.4,1.4,0.4,2.2c0,0.8-0.1,1.5-0.4,2.2
			c-0.3,0.7-0.7,1.3-1.2,1.8c-0.5,0.5-1.2,0.9-1.9,1.2c-0.7,0.3-1.5,0.4-2.4,0.4c-0.9,0-1.7-0.1-2.4-0.4s-1.3-0.7-1.9-1.2
			c-0.5-0.5-0.9-1.1-1.2-1.8S158.9,74.2,158.9,73.4z M164.8,77.2c1.2,0,2.1-0.4,2.8-1.1c0.6-0.8,1-1.7,1-2.7s-0.3-2-1-2.7
			c-0.6-0.7-1.6-1.1-2.8-1.1s-2.1,0.4-2.8,1.1c-0.7,0.7-1,1.7-1,2.7s0.3,2,1,2.7S163.6,77.2,164.8,77.2z M177.1,89.7h-14.9v-6.1
			c0-0.3,0-0.7,0-1.1c0-0.4-0.1-0.7-0.1-1.1h15.1c-0.1,0.4-0.1,0.7-0.1,1.1c0,0.3,0,0.7,0,1.1V89.7z M175,87.9v-4.8h-10.7v4.8H175z
			 M177.1,70v10.2H175V70c0-0.4,0-0.8,0-1.3c0-0.4-0.1-0.8-0.1-1.3h2.3c-0.1,0.4-0.1,0.9-0.1,1.3C177.1,69.2,177.1,69.6,177.1,70z"
			/>
		<path d="M195.9,82.1v5.4c0,0.4,0,0.8,0,1.2c0,0.4,0,0.9,0.1,1.3h-2.3c0-0.2,0-0.4,0-0.6c0-0.2,0-0.4,0-0.7c0-0.2,0-0.4,0-0.6
			s0-0.4,0-0.6v-5.3h-5.6v5.2c0,0.4,0,0.8,0,1.2c0,0.4,0,0.9,0.1,1.3h-2.3c0-0.2,0-0.4,0-0.6c0-0.2,0-0.4,0-0.7c0-0.2,0-0.4,0-0.6
			c0-0.2,0-0.4,0-0.6v-5.1h-1.8c-0.7,0-1.3,0-1.9,0c-0.6,0-1.3,0-1.9,0.1v-2c0.7,0.1,1.3,0.1,1.9,0.1c0.6,0,1.3,0,1.9,0h13.3
			c0.7,0,1.3,0,1.9,0c0.6,0,1.3,0,1.9-0.1v2c-0.7,0-1.3-0.1-1.9-0.1c-0.6,0-1.3,0-1.9,0H195.9z M190.9,78c-1.3,0-2.4-0.1-3.4-0.4
			c-1-0.3-1.9-0.6-2.6-1.1c-0.7-0.5-1.2-1-1.6-1.6c-0.4-0.6-0.6-1.3-0.6-2.1c0-0.7,0.2-1.4,0.6-2c0.4-0.6,0.9-1.2,1.6-1.7
			c0.7-0.5,1.5-0.8,2.5-1.1c1-0.3,2.2-0.4,3.4-0.4c1.3,0,2.4,0.1,3.4,0.4c1,0.3,1.9,0.6,2.6,1.1c0.7,0.5,1.2,1,1.6,1.6
			c0.4,0.6,0.6,1.3,0.6,2c0,0.7-0.2,1.4-0.6,2c-0.4,0.6-0.9,1.2-1.6,1.6c-0.7,0.5-1.6,0.8-2.6,1.1C193.3,77.9,192.1,78,190.9,78z
			 M184.9,72.9c0,0.5,0.1,1,0.4,1.4c0.3,0.4,0.7,0.8,1.2,1c0.5,0.3,1.1,0.5,1.9,0.7c0.7,0.2,1.5,0.2,2.4,0.2c0.8,0,1.6-0.1,2.3-0.2
			c0.7-0.1,1.3-0.4,1.9-0.6c0.5-0.3,0.9-0.6,1.2-1s0.5-0.9,0.5-1.4c0-0.5-0.2-1-0.5-1.4s-0.7-0.8-1.2-1.1c-0.5-0.3-1.1-0.5-1.9-0.7
			c-0.7-0.2-1.5-0.2-2.3-0.2c-0.9,0-1.6,0.1-2.4,0.2c-0.7,0.2-1.4,0.4-1.9,0.7c-0.5,0.3-0.9,0.6-1.2,1
			C185.1,71.9,184.9,72.4,184.9,72.9z"/>
	</g>
</g>
</svg>
