<?xml version="1.0" encoding="utf-8"?>
<!-- Generator: Adobe Illustrator 17.1.0, SVG Export Plug-In . SVG Version: 6.00 Build 0)  -->
<!DOCTYPE svg PUBLIC "-//W3C//DTD SVG 1.1//EN" "http://www.w3.org/Graphics/SVG/1.1/DTD/svg11.dtd">
<svg version="1.1" id="Layer_1" xmlns="http://www.w3.org/2000/svg" xmlns:xlink="http://www.w3.org/1999/xlink" x="0px" y="0px"
	 viewBox="0 0 12 5.1" enable-background="new 0 0 12 5.1" xml:space="preserve">
<g>
	<g>
		<path fill="#FFFFFF" d="M4.6,3.1c0,0.2-0.1,0.3-0.3,0.3H4c-0.2,0-0.3-0.1-0.3-0.3V2.8c0-0.2,0.1-0.3,0.3-0.3h0.3
			c0.2,0,0.3,0.1,0.3,0.3V3.1z"/>
		<rect x="3.7" y="2.8" fill="#FFFFFF" width="0.9" height="2.3"/>
		<path fill="#FFFFFF" d="M2.8,5.1c0-0.8,0-1.6,0-2.4c0-0.2,0-0.4,0-0.6V1.9H3c0.1,0,0.1,0,0.2,0c0.2,0,0.3,0,0.5,0
			c0.3,0,0.6,0,0.9,0c0.1,0,0.2,0,0.4,0c0.1,0,0.2,0,0.3,0h0.2v0.2c0,0.2,0,0.4,0,0.6c0,0.8,0,1.6,0,2.4h0.9c0-1.2,0-2.3,0-3.4
			C6.5,1.3,6.2,1,5.8,1C5.7,1,5.6,1,5.6,1C4.6,1,3.7,1,2.8,1C2.7,1,2.6,1,2.6,1C2.2,1,1.9,1.3,1.9,1.7c0,1.2,0,2.3,0,3.4H2.8z"/>
		<rect y="1.4" fill="#FFFFFF" width="0.9" height="3.7"/>
		<path fill="#FFFFFF" d="M11.1,1c0,0.6,0,1.2,0,1.8c0,0.4,0,0.8,0,1.2v0.2h-0.2c-0.1,0-0.3,0-0.4,0c-0.4,0-0.8,0-1.2,0
			c-0.2,0-0.4,0-0.6,0H8.3V3.9c0-0.4,0-0.8,0-1.2c0-0.6,0-1.2,0-1.8H7.4c0,1.2,0,2.3,0,3.4c0,0.4,0.3,0.7,0.7,0.7c0.1,0,0.1,0,0.2,0
			c0.9,0,1.8,0,2.8,0c0.1,0,0.1,0,0.2,0c0.4,0,0.7-0.3,0.7-0.7c0-1.2,0-2.3,0-3.4L11.1,1L11.1,1z"/>
		<path fill="#FFFFFF" d="M1.8,0.6c0,0.2-0.1,0.3-0.3,0.3H1.2C1,0.9,0.9,0.8,0.9,0.6V0.3C0.9,0.1,1.1,0,1.2,0h0.4
			c0.2,0,0.3,0.1,0.3,0.3V0.6z"/>
		<path fill="#FFFFFF" d="M0.9,1.6c0,0.2-0.1,0.3-0.3,0.3H0.3C0.1,1.8,0,1.7,0,1.6V1.2C0,1,0.1,0.9,0.3,0.9h0.4
			c0.2,0,0.3,0.1,0.3,0.3L0.9,1.6L0.9,1.6z"/>
	</g>
</g>
</svg>
