<?xml version="1.0" encoding="utf-8"?>
<!-- Generator: Adobe Illustrator 17.1.0, SVG Export Plug-In . SVG Version: 6.00 Build 0)  -->
<!DOCTYPE svg PUBLIC "-//W3C//DTD SVG 1.1//EN" "http://www.w3.org/Graphics/SVG/1.1/DTD/svg11.dtd">
<svg version="1.1" id="레이어_1" xmlns="http://www.w3.org/2000/svg" xmlns:xlink="http://www.w3.org/1999/xlink" x="0px"
	 y="0px" viewBox="0 0 165 32" enable-background="new 0 0 165 32" xml:space="preserve">
<g>
	<g>
		<path fill="#707070" d="M28.9,19.6c0,1.1-0.9,2-2,2h-1.9c-1.1,0-2-0.9-2-2v-1.9c0-1.1,0.9-2,2-2h1.9c1.1,0,2,0.9,2,2V19.6z"/>
		<rect x="23.1" y="17.6" fill="#707070" width="5.7" height="14.4"/>
		<path d="M17.4,32c0-5,0-10,0-15c0-1.2,0-2.5,0-3.7v-1.5h1.5c0.5,0,0.9,0,1.4,0c1,0,2,0,2.9,0c2,0,3.8,0,5.7,0c0.8,0,1.5,0,2.3,0
			c0.7,0,1.4,0,2.1,0h1.5v1.5c0,1.2,0,2.5,0,3.7c0,5,0,10,0,15h5.8c0-7.2,0-14.3,0-21.5C40.5,8,38.5,6,36,6c-0.4,0-0.9,0-1.3,0
			c-5.8,0-11.5,0-17.4,0c-0.4,0-0.9,0-1.3,0c-2.5,0-4.4,2-4.4,4.4c0,7.2,0,14.3,0,21.5H17.4z"/>
		<rect y="8.7" width="5.7" height="23.3"/>
		<path fill="#4692C9" d="M69.3,6c0,3.8,0,7.5,0,11.4c0,2.5,0,4.9,0,7.4v1.5h-1.5c-0.9,0-1.8,0-2.8,0c-2.6,0-5.1,0-7.7,0
			c-1.3,0-2.7,0-3.9,0h-1.5v-1.6c0-2.5,0-4.9,0-7.4c0-3.8,0-7.5,0-11.4h-5.8c0,7.2,0,14.3,0,21.5c0,2.5,2,4.4,4.4,4.4
			c0.4,0,0.9,0,1.3,0c5.7,0,11.5,0,17.3,0c0.4,0,0.9,0,1.3,0c2.5,0,4.4-2,4.4-4.4c0-7.2,0-14.3,0-21.5L69.3,6L69.3,6z"/>
		<path fill="#4692C9" d="M11.5,4c0,1-0.8,1.7-1.7,1.7H7.5c-1,0-1.7-0.8-1.7-1.7V1.7c0-1,0.8-1.7,1.7-1.7h2.4c1,0,1.7,0.8,1.7,1.7V4
			z"/>
		<path d="M5.8,9.9c0,1-0.8,1.7-1.7,1.7H1.7c-1,0-1.7-0.8-1.7-1.7V7.5c0-1,0.8-1.7,1.7-1.7H4c1,0,1.7,0.8,1.7,1.7L5.8,9.9L5.8,9.9z"
			/>
	</g>
	<g>
		<path d="M90.1,31.9h-2.3V20.6h2.3V31.9z"/>
		<path d="M95,19.1c0,0.7-0.2,1.3-0.6,1.8c-0.4,0.5-1.1,0.9-1.9,1l-0.3-0.5c0.5-0.2,0.8-0.6,0.9-1c-0.4,0-0.7-0.1-0.9-0.4
			c-0.2-0.3-0.3-0.6-0.3-0.9c0-0.5,0.1-0.8,0.4-1.1c0.3-0.3,0.7-0.5,1.2-0.5c0.4,0,0.8,0.1,1.1,0.4S95,18.5,95,19.1z"/>
		<path d="M112.6,31.9h-2.3v-9h-4.5v9h-2.3v-9H99v9h-2.3V20.6h13.5c1.5,0,2.3,0.8,2.3,2.3L112.6,31.9L112.6,31.9z"/>
		<path d="M125.6,29.7c0,0.7-0.2,1.2-0.6,1.6c-0.4,0.4-1,0.6-1.6,0.6h-6.7c-0.3,0-0.6-0.1-0.9-0.2c-0.3-0.1-0.5-0.3-0.7-0.5
			c-0.2-0.2-0.4-0.4-0.5-0.7c-0.1-0.3-0.2-0.6-0.2-0.9v-9.1h2.3v9.1h6.7v-9.1h2.3L125.6,29.7L125.6,29.7z"/>
		<path d="M135.3,31.9H133V20.6h2.3V31.9z"/>
		<path d="M148,31.9h-2.3v-9h-6.2v9h-2.3V20.6h8.4c1.5,0,2.3,0.8,2.3,2.3L148,31.9L148,31.9z"/>
		<path d="M160.6,31.9H152c-1.5,0-2.3-0.8-2.3-2.3v-6.8c0-0.6,0.2-1.2,0.6-1.6s0.9-0.7,1.7-0.7h8.7v2.3H152v6.8h8.7L160.6,31.9
			L160.6,31.9z"/>
		<path d="M165,30.5c0,0.2,0,0.4-0.1,0.6c-0.1,0.2-0.2,0.4-0.3,0.5s-0.3,0.3-0.5,0.3c-0.2,0.1-0.4,0.1-0.6,0.1
			c-0.4,0-0.8-0.2-1.1-0.5c-0.3-0.3-0.6-0.5-0.6-1c0-0.4,0.2-0.8,0.5-1.1c0.3-0.3,0.7-0.4,1.1-0.4c0.2,0,0.4,0,0.6,0.1
			s0.4,0.2,0.5,0.3s0.3,0.3,0.3,0.5C164.9,30.1,165,30.3,165,30.5z"/>
	</g>
</g>
</svg>
