<?xml version="1.0" encoding="utf-8"?>
<!-- Generator: Adobe Illustrator 17.1.0, SVG Export Plug-In . SVG Version: 6.00 Build 0)  -->
<!DOCTYPE svg PUBLIC "-//W3C//DTD SVG 1.1//EN" "http://www.w3.org/Graphics/SVG/1.1/DTD/svg11.dtd">
<svg version="1.1" id="Layer_1" xmlns="http://www.w3.org/2000/svg" xmlns:xlink="http://www.w3.org/1999/xlink" x="0px" y="0px"
	 viewBox="0 0 618.9 263.5" enable-background="new 0 0 618.9 263.5" xml:space="preserve">
<g>
	<path fill="#A4A9AD" d="M238.1,161.1c0,8.9-7.2,16.2-16.2,16.2h-15.3c-8.9,0-16.2-7.2-16.2-16.2v-15.3c0-8.9,7.2-16.1,16.2-16.1
		h15.3c8.9,0,16.2,7.2,16.2,16.1V161.1z"/>
	<rect x="190.4" y="144.9" fill="#A4A9AD" width="47.6" height="118.6"/>
	<path fill="#FFFFFF" d="M142.8,263.5c0-41.3,0-82.5,0-123.8c0-10.1,0-20.1,0-30.2V97.3h12.2c3.8,0,7.6,0,11.4,0c8,0,16,0,24,0
		c15.9,0,31.7,0,47.6,0c6.2,0,12.4,0,18.6,0c5.6,0,11.2,0,16.7,0h12.2v12.2c0,10.1,0,20.1,0,30.2c0,41.3,0,82.5,0,123.8h47.6
		c0-59.1,0-118.1,0-177.2c0-20.2-16.4-36.7-36.7-36.7c-3.6,0-7.3,0-11,0c-47.6,0-95.2,0-142.8,0c-3.6,0-7.3,0-10.9,0
		c-20.2,0-36.7,16.4-36.7,36.7c0,59,0,118.1,0,177.2H142.8z"/>
	<rect x="0" y="71.4" fill="#FFFFFF" width="47.6" height="192.1"/>
	<path fill="#00AEEF" d="M571.3,49.3c0,31.1,0,62.3,0,93.4c0,20.3,0,40.7,0,61v12.2h-12.2c-7.5,0-15,0-22.5,0c-21,0-42.1,0-63.1,0
		c-10.9,0-21.8,0-32.7,0h-12.2v-12.2c0-20.3,0-40.7,0-61c0-31.1,0-62.3,0-93.4h-47.6c0,59.2,0,118.4,0,177.6
		c0,20.2,16.4,36.7,36.7,36.7c3.7,0,7.3,0,10.9,0c47.6,0,95.2,0,142.8,0c3.7,0,7.3,0,10.9,0c20.2,0,36.7-16.4,36.7-36.7
		c0-59.2,0-118.4,0-177.6H571.3z"/>
	<path fill="#00AEEF" d="M95.2,33.5c0,7.8-6.3,14.1-14.1,14.1H61.7c-7.8,0-14.1-6.3-14.1-14.1V14.1C47.6,6.3,53.9,0,61.7,0h19.4
		c7.8,0,14.1,6.3,14.1,14.1V33.5z"/>
	<path fill="#FFFFFF" d="M47.6,81.1c0,7.8-6.3,14.1-14.1,14.1H14.1C6.3,95.2,0,88.9,0,81.1V61.7c0-7.8,6.3-14.1,14.1-14.1h19.4
		c7.8,0,14.1,6.3,14.1,14.1V81.1z"/>
</g>
</svg>
