<?xml version="1.0" encoding="utf-8"?>
<!-- Generator: Adobe Illustrator 18.0.0, SVG Export Plug-In . SVG Version: 6.00 Build 0)  -->
<!DOCTYPE svg PUBLIC "-//W3C//DTD SVG 1.1//EN" "http://www.w3.org/Graphics/SVG/1.1/DTD/svg11.dtd">
<svg version="1.1" id="_x3C_레이어_x3E_" xmlns="http://www.w3.org/2000/svg" xmlns:xlink="http://www.w3.org/1999/xlink"
	 x="0px" y="0px" viewBox="0 0 73.6 68.1" enable-background="new 0 0 73.6 68.1" xml:space="preserve">
<path fill="#FF7212" d="M73.6,20.7v-2.9c0-3.2,0-6.5-4.8-6.5H32.7l0-5.3c0-3.4-2.9-6-6-6H5.4C1.4,0,0,3.9,0,8.2v12.5H73.6z"/>
<rect y="24.5" fill="#3A3B3D" width="73.7" height="43.6"/>
<g>
	<path fill="#FFC408" d="M61,30.9c-0.6,0-1.1-0.3-1.6-0.8l-8.5-11.9c-0.3-0.5-0.4-1-0.1-1.6s0.8-0.8,1.3-0.8h2.9V2.2
		c0-0.8,0.7-1.5,1.5-1.5h8.9c0.8,0,1.5,0.7,1.5,1.5v13.5h2.9c0.5,0,1,0.3,1.2,0.7s0.2,1-0.1,1.4l-8.5,12.2
		C62.1,30.6,61.6,30.9,61,30.9L61,30.9z"/>
	<path fill="#FFFFFF" d="M65.4,1.5c0.4,0,0.7,0.3,0.7,0.7V15v1.5h1.5h2.2c0.3,0,0.5,0.2,0.5,0.3c0.1,0.1,0.1,0.4,0,0.6l-8.5,12.2
		c-0.2,0.3-0.5,0.4-0.8,0.4c-0.3,0-0.7-0.2-1-0.5l-8.5-11.9c-0.2-0.3-0.1-0.7-0.1-0.8c0.1-0.1,0.3-0.4,0.7-0.4h2.2h1.5V15V2.2
		c0-0.4,0.3-0.7,0.7-0.7H65.4 M65.4,0h-8.9c-1.2,0-2.2,1-2.2,2.2V15h-2.2c-1.8,0-2.9,2.1-1.8,3.6l8.6,12c0.7,0.7,1.4,1,2.1,1
		c0.8,0,1.5-0.4,2.1-1l8.5-12.2c1-1.4,0-3.3-1.7-3.3h-2.2V2.2C67.7,1,66.7,0,65.4,0L65.4,0z"/>
</g>
</svg>
