<?xml version="1.0" encoding="utf-8"?>
<!-- Generator: Adobe Illustrator 18.0.0, SVG Export Plug-In . SVG Version: 6.00 Build 0)  -->
<!DOCTYPE svg PUBLIC "-//W3C//DTD SVG 1.1//EN" "http://www.w3.org/Graphics/SVG/1.1/DTD/svg11.dtd">
<svg version="1.1" id="_x3C_레이어_x3E_" xmlns="http://www.w3.org/2000/svg" xmlns:xlink="http://www.w3.org/1999/xlink"
	 x="0px" y="0px" viewBox="0 0 76.1 89.1" enable-background="new 0 0 76.1 89.1" xml:space="preserve">
<g>
	<g>
		<path fill="#3A3B3D" d="M19.8,47.9l1.6,5c0,0,0.4,3.2,3.8,2.9c0,0,2,0.2,1.9-3l-1.5-4.8H19.8z"/>
		<path fill="#3A3B3D" d="M25.2,44.8L24.6,43l3.1-8.4l0,10.3h20.8l-0.2-10.8l3.1,8l-0.8,2.7h5.8l0.8-3.2l-4.1-13.4
			c-1.1-4.3-4.6-4.2-4.6-4.2H27.6l-1.2,0.1c0,0-2.9,0-3.9,4.1l-4,14.2l0.8,2.4H25.2z"/>
		<path fill="#3A3B3D" d="M35.4,65.4l0-0.5c0,0,2.5-4.4,5.5,0.1l0,0.4h7.9l-0.3-17.4H27.7l0,17.4H35.4z"/>
		<path fill="#3A3B3D" d="M43.1,66.5l-1.5,18.6c0,0-0.2,4.1,3.7,4c0,0,3.6,0.3,3.8-3.3l2.1-19.3H43.1z"/>
		<path fill="#3A3B3D" d="M25.9,66.5l1.8,19.1c0,0,0,3.8,4.5,3.5c0,0,3.3,0.2,3.3-4l-1.8-18.6H25.9z"/>
		<path fill="#3A3B3D" d="M50.1,47.9l-1.4,4.7c0.4,3.2,2,3.2,2,3.2c3.5,0.5,4-2.8,4-2.8l1.3-5.1H50.1z"/>
		<polygon fill="#65A8F1" points="35.4,25.9 39.7,25.9 38.9,29.6 36.4,29.6 		"/>
		<polygon fill="#65A8F1" points="39,44.8 41.4,40.7 38.9,31 36.4,31 34.8,40.8 37.5,44.8 		"/>
		<path fill="#3A3B3D" d="M37.6,4c-0.7,0-1.4,0.1-2,0.2c-2.4-0.3-5.7-1.3-7.8-4.2c0,0-1.1,7.4,1.4,8.9c-0.8,1.4-1.3,3.1-1.3,4.9
			c0,5.4,4.4,9.7,9.7,9.7c5.4,0,9.7-4.4,9.7-9.7C47.4,8.4,43,4,37.6,4z"/>
		<rect x="42.3" y="29.4" fill="#65A8F1" width="3.7" height="1.5"/>
	</g>
	<rect x="0" y="46" fill="#3A3B3D" width="76.1" height="19.6"/>
	<polygon fill="#3A3B3D" points="5,64.8 6.1,88.7 10.3,88.7 11.1,64.8 	"/>
	<polygon fill="#3A3B3D" points="64.4,64.8 65.2,88.7 69.5,88.7 70.5,64.8 	"/>
	<polygon fill="#3A3B3D" points="33.6,66.5 43.2,66.5 42.9,69.6 33.9,69.6 	"/>
</g>
</svg>
