<?xml version="1.0" encoding="utf-8"?>
<!-- Generator: Adobe Illustrator 18.0.0, SVG Export Plug-In . SVG Version: 6.00 Build 0)  -->
<!DOCTYPE svg PUBLIC "-//W3C//DTD SVG 1.1//EN" "http://www.w3.org/Graphics/SVG/1.1/DTD/svg11.dtd">
<svg version="1.1" id="_x3C_레이어_x3E_" xmlns="http://www.w3.org/2000/svg" xmlns:xlink="http://www.w3.org/1999/xlink"
	 x="0px" y="0px" viewBox="0 0 84.5 99.9" enable-background="new 0 0 84.5 99.9" xml:space="preserve">
<g>
	<circle fill="#3A3B3D" cx="69.5" cy="40.5" r="7.5"/>
</g>
<g>
	<circle fill="#3A3B3D" cx="14" cy="39.8" r="7.5"/>
</g>
<g>
	<g>
		<path fill="#3A3B3D" d="M29.4,39.1l1,0l0.1,56.5c0,0.1,0.1,4.6,4.6,4.2h0.1c0.7,0,3.1-1.1,3.1-4.8l-0.1-23.5l0.1-0.1
			c0.1-0.1,1.4-2.4,3.5-2.4c1.3,0,2.5,0.9,3.5,2.5l0.1,0.1l0.9,23.4c-0.3,3,1.4,4.9,3.6,4.8h0h0.1c0,0,0.1,0,0.2,0
			c1,0,3.4-1.1,3.5-4l-0.9-57.2l1-0.1L56.1,59c0.4,3.2,2.4,3.4,2.5,3.4c0.2,0,0.5,0,0.6,0c2.8,0,2.9-3.2,2.9-3.3l-3.7-27
			c-0.5-4-2.6-4.2-3-4.2l-0.4,0l-0.1-0.1H29.4c-0.2,0-1.6,0.1-1.6,0.1l0-0.5l-0.1,0.5c-0.4,0-2.5,0.2-3,4.2l-2.7,26.2
			c0,0-0.1,2.5,1,3.7c0.5,0.5,1.1,0.7,1.9,0.6l0.1,0.5l0.1-0.5c0.4,0,2.2-0.2,2.6-3.3L29.4,39.1z"/>
	</g>
</g>
<path fill="#3A3B3D" d="M22.2,62.7c-1.4-1.5-1.3-4.3-1.3-4.5l1-10H5.6c-0.2,0-1.2,0-1.2,0s-2.1-0.2-2.5,3.3L0,70
	c0,0-0.2,3.7,2.5,3.4c0,0,1.9,0.2,2.3-2.7L6,56.6l0.1,40c0,0,0.1,3.3,3.1,3.3c0,0,3.1,0.1,3.1-3.3l-0.1-17c0,0,2-3.5,4.4,0.1
	l0.6,16.9c0,0-0.2,3.3,3,3.3c0,0,3,0,3-3.3l-0.6-33.5C22.5,62.9,22.3,62.8,22.2,62.7z"/>
<path fill="#3A3B3D" d="M81.9,52.2c-0.5-3.5-2.5-3.3-2.5-3.3s0,0-0.1,0c0,0,0,0-0.1,0H61.7L63.1,59c0,1.1-0.4,2.7-1.6,3.7l0,34.5
	c0,0,0.2,2.7,3.1,2.7c0,0,3.2,0,3.2-2.7l-0.1-17c0,0,2-3.5,4.4,0.1l0.6,16.9c0,0,0,2.6,3,2.6c0,0,3,0.3,3-2.6L78,56.9l1.6,14.4
	c0.3,2.6,2.1,2.7,2.1,2.7c2.8,0.4,2.9-2.7,2.9-2.7L81.9,52.2z"/>
<polygon fill="#65A8F1" points="38.7,29.4 43.6,29.4 42.6,33.5 39.8,33.5 "/>
<polygon fill="#65A8F1" points="39.8,35.2 42.6,35.2 45.4,46.1 42,52.2 38,46.2 "/>
<path fill="#3A3B3D" d="M41.2,4.6c-0.8,0-1.5,0.1-2.3,0.2c-2.8-0.4-6.5-1.5-8.8-4.8c0,0-1.2,8.4,1.5,10.1c-0.9,1.6-1.5,3.5-1.5,5.5
	c0,6.1,4.9,11,11,11c6.1,0,11-4.9,11-11C52.3,9.5,47.3,4.6,41.2,4.6z"/>
<rect x="46.5" y="33.3" fill="#65A8F1" width="4.2" height="1.7"/>
</svg>
