<?xml version="1.0" encoding="utf-8"?>
<!-- Generator: Adobe Illustrator 18.0.0, SVG Export Plug-In . SVG Version: 6.00 Build 0)  -->
<!DOCTYPE svg PUBLIC "-//W3C//DTD SVG 1.1//EN" "http://www.w3.org/Graphics/SVG/1.1/DTD/svg11.dtd">
<svg version="1.1" id="_x3C_레이어_x3E_" xmlns="http://www.w3.org/2000/svg" xmlns:xlink="http://www.w3.org/1999/xlink"
	 x="0px" y="0px" viewBox="0 0 81.4 65" enable-background="new 0 0 81.4 65" xml:space="preserve">
<path fill="#FFB45D" d="M49.2,27.5v36.9h-3V27.9c-5.7-1.6-27.3-7.1-32.3-8.3V65h67.4V20.7C78.2,21.4,56.8,26,49.2,27.5z"/>
<path fill="#3A3B3D" d="M13.9,0v15.7l33.7,9l33.7-7.4V0H13.9z M47.9,20.1c-1.8,0-3.2-1.4-3.2-3.1c0-1.7,1.4-3,3.2-3
	c1.8,0,3.2,1.4,3.2,3C51.1,18.7,49.7,20.1,47.9,20.1z"/>
<g>
	<rect x="-0.2" y="30.1" fill="#5FC4E5" stroke="#FFFFFF" stroke-width="0.5" stroke-miterlimit="10" width="33.4" height="2"/>
	<rect x="-0.2" y="33.8" fill="#5FC4E5" stroke="#FFFFFF" stroke-width="0.5" stroke-miterlimit="10" width="33.4" height="2"/>
	<rect x="-0.2" y="37.4" fill="#5FC4E5" stroke="#FFFFFF" stroke-width="0.5" stroke-miterlimit="10" width="33.4" height="2"/>
	<rect x="-0.2" y="41" fill="#5FC4E5" stroke="#FFFFFF" stroke-width="0.5" stroke-miterlimit="10" width="33.4" height="2"/>
	<rect x="-0.2" y="44.7" fill="#5FC4E5" stroke="#FFFFFF" stroke-width="0.5" stroke-miterlimit="10" width="33.4" height="2"/>
	<rect x="-0.2" y="48.3" fill="#5FC4E5" stroke="#FFFFFF" stroke-width="0.5" stroke-miterlimit="10" width="33.4" height="2"/>
	<rect x="-0.2" y="52" fill="#5FC4E5" stroke="#FFFFFF" stroke-width="0.5" stroke-miterlimit="10" width="33.4" height="2"/>
	<rect x="-0.2" y="55.6" fill="#5FC4E5" stroke="#FFFFFF" stroke-width="0.5" stroke-miterlimit="10" width="33.4" height="2"/>
	<rect x="-0.2" y="59.3" fill="#5FC4E5" stroke="#FFFFFF" stroke-width="0.5" stroke-miterlimit="10" width="33.4" height="2"/>
	<rect x="-0.2" y="62.9" fill="#5FC4E5" stroke="#FFFFFF" stroke-width="0.5" stroke-miterlimit="10" width="33.4" height="2"/>
</g>
<path fill="#5FC4E5" stroke="#FFFFFF" stroke-width="0.5" stroke-miterlimit="10" d="M33.3,28.4c0,0-21.6,0.2-32.7-4l0.3-1.9
	c0,0,17.2,4.2,32.4,3.9V28.4z"/>
</svg>
