<?xml version="1.0" encoding="utf-8"?>
<!-- Generator: Adobe Illustrator 18.0.0, SVG Export Plug-In . SVG Version: 6.00 Build 0)  -->
<!DOCTYPE svg PUBLIC "-//W3C//DTD SVG 1.1//EN" "http://www.w3.org/Graphics/SVG/1.1/DTD/svg11.dtd">
<svg version="1.1" id="_x3C_레이어_x3E_" xmlns="http://www.w3.org/2000/svg" xmlns:xlink="http://www.w3.org/1999/xlink"
	 x="0px" y="0px" viewBox="0 0 105.5 66.3" enable-background="new 0 0 105.5 66.3" xml:space="preserve">
<g>
	<g>
		<g>
			<rect fill="#3A3B3D" width="87.3" height="66.3"/>
		</g>
		<path fill="#FFFFFF" d="M8.6,12.8v41.9h33.8V12.8H8.6z M35.7,50.8H16.9c-0.8-9.4,2.9-14.8,4.9-17.1c-2.1-1.5-3.5-3.9-3.5-6.6
			c0-4.4,3.6-8,8-8c4.4,0,8,3.6,8,8c0,2.7-1.3,5-3.3,6.5C36.4,40.7,35.7,50.8,35.7,50.8z"/>
		<line fill="none" stroke="#FFFFFF" stroke-width="3" stroke-miterlimit="10" x1="51.9" y1="15.4" x2="75.6" y2="15.4"/>
		<line fill="none" stroke="#FFFFFF" stroke-width="3" stroke-miterlimit="10" x1="52.3" y1="26.9" x2="76" y2="26.9"/>
		<line fill="none" stroke="#FFFFFF" stroke-width="3" stroke-miterlimit="10" x1="52.2" y1="39" x2="75.9" y2="39"/>
		<line fill="none" stroke="#FFFFFF" stroke-width="3" stroke-miterlimit="10" x1="52.1" y1="51.6" x2="75.8" y2="51.6"/>
	</g>
</g>
<path fill="none" stroke="#FF6365" stroke-width="2" stroke-linecap="round" stroke-linejoin="round" stroke-miterlimit="10" d="
	M80,4.9c0,0,6.1,1.6,14.5,0c0,0,3.7-1,7,1.1c0,0,5.1,2.9,2,8.8c0,0-2.1,4.3-8.6,2.3c0,0-4.5-1.2-7.8-5.4C87.1,11.8,84.2,8.4,80,4.9z
	"/>
</svg>
