<?xml version="1.0" encoding="utf-8"?>
<!-- Generator: Adobe Illustrator 19.2.1, SVG Export Plug-In . SVG Version: 6.00 Build 0)  -->
<svg version="1.1" xmlns="http://www.w3.org/2000/svg" xmlns:xlink="http://www.w3.org/1999/xlink" x="0px" y="0px"
	 viewBox="0 0 300 300" style="enable-background:new 0 0 300 300;" xml:space="preserve">
<g id="merchant.svg">
	<g>
		<path class="st0" d="M254.8,59.4H47.3L2.1,108.8c0,24.9,20.2,45.2,45.2,45.2c13.9,0,26.3-6.3,34.6-16.1
			c8.3,9.9,20.7,16.1,34.6,16.1s26.3-6.3,34.6-16.1c8.3,9.9,20.7,16.1,34.6,16.1c13.9,0,26.3-6.3,34.6-16.1
			c8.3,9.9,20.7,16.1,34.6,16.1c24.9,0,45.2-20.2,45.2-45.2L254.8,59.4z"/>
		<g>
			<path class="st0" d="M13.4,271.3c0,15.8,12.9,28.7,28.7,28.7h179.6h24.5H260c15.8,0,28.7-12.9,28.7-28.7v-105h-24.5v100
				c0,5-4.1,9.2-9.1,9.2H47.1c-5,0-9.1-4.1-9.1-9.2v-100H13.4V271.3z"/>
		</g>
	</g>
</g>
</svg>
